<?xml version="1.0" encoding="utf-8" standalone="no"?>
<!DOCTYPE svg PUBLIC "-//W3C//DTD SVG 1.1//EN"
  "http://www.w3.org/Graphics/SVG/1.1/DTD/svg11.dtd">
<svg xmlns:xlink="http://www.w3.org/1999/xlink" width="432pt" height="288pt" viewBox="0 0 432 288" xmlns="http://www.w3.org/2000/svg" version="1.1">
 <metadata>
  <rdf:RDF xmlns:dc="http://purl.org/dc/elements/1.1/" xmlns:cc="http://creativecommons.org/ns#" xmlns:rdf="http://www.w3.org/1999/02/22-rdf-syntax-ns#">
   <cc:Work>
    <dc:type rdf:resource="http://purl.org/dc/dcmitype/StillImage"/>
    <dc:date>2022-08-01T15:45:19.592157</dc:date>
    <dc:format>image/svg+xml</dc:format>
    <dc:creator>
     <cc:Agent>
      <dc:title>Matplotlib v3.5.1, https://matplotlib.org/</dc:title>
     </cc:Agent>
    </dc:creator>
   </cc:Work>
  </rdf:RDF>
 </metadata>
 <defs>
  <style type="text/css">*{stroke-linejoin: round; stroke-linecap: butt}</style>
 </defs>
 <g id="figure_1">
  <g id="patch_1">
   <path d="M 0 288 
L 432 288 
L 432 0 
L 0 0 
L 0 288 
z
" style="fill: none"/>
  </g>
  <g id="axes_1">
   <g id="patch_2">
    <path d="M 54 252 
L 388.8 252 
L 388.8 34.56 
L 54 34.56 
z
" style="fill: #ffffff"/>
   </g>
   <g id="PathCollection_1">
    <defs>
     <path id="m16fab27bcd" d="M 0 3 
C 0.795609 3 1.55874 2.683901 2.12132 2.12132 
C 2.683901 1.55874 3 0.795609 3 0 
C 3 -0.795609 2.683901 -1.55874 2.12132 -2.12132 
C 1.55874 -2.683901 0.795609 -3 0 -3 
C -0.795609 -3 -1.55874 -2.683901 -2.12132 -2.12132 
C -2.683901 -1.55874 -3 -0.795609 -3 0 
C -3 0.795609 -2.683901 1.55874 -2.12132 2.12132 
C -1.55874 2.683901 -0.795609 3 0 3 
z
" style="stroke: #1f77b4"/>
    </defs>
    <g clip-path="url(#p5222e6136c)">
     <use xlink:href="#m16fab27bcd" x="333.887539" y="88.327569" style="fill: #1f77b4; stroke: #1f77b4"/>
     <use xlink:href="#m16fab27bcd" x="303.028815" y="57.058792" style="fill: #1f77b4; stroke: #1f77b4"/>
     <use xlink:href="#m16fab27bcd" x="322.576288" y="91.881892" style="fill: #1f77b4; stroke: #1f77b4"/>
     <use xlink:href="#m16fab27bcd" x="308.567387" y="86.022562" style="fill: #1f77b4; stroke: #1f77b4"/>
     <use xlink:href="#m16fab27bcd" x="315.701309" y="79.486006" style="fill: #1f77b4; stroke: #1f77b4"/>
     <use xlink:href="#m16fab27bcd" x="328.383131" y="80.009633" style="fill: #1f77b4; stroke: #1f77b4"/>
     <use xlink:href="#m16fab27bcd" x="350.164941" y="63.896913" style="fill: #1f77b4; stroke: #1f77b4"/>
     <use xlink:href="#m16fab27bcd" x="281.034083" y="74.50407" style="fill: #1f77b4; stroke: #1f77b4"/>
     <use xlink:href="#m16fab27bcd" x="319.804611" y="83.206292" style="fill: #1f77b4; stroke: #1f77b4"/>
     <use xlink:href="#m16fab27bcd" x="298.093628" y="64.483641" style="fill: #1f77b4; stroke: #1f77b4"/>
     <use xlink:href="#m16fab27bcd" x="323.819565" y="77.315447" style="fill: #1f77b4; stroke: #1f77b4"/>
     <use xlink:href="#m16fab27bcd" x="331.641959" y="71.906694" style="fill: #1f77b4; stroke: #1f77b4"/>
     <use xlink:href="#m16fab27bcd" x="319.054115" y="81.686243" style="fill: #1f77b4; stroke: #1f77b4"/>
     <use xlink:href="#m16fab27bcd" x="325.938434" y="73.809838" style="fill: #1f77b4; stroke: #1f77b4"/>
     <use xlink:href="#m16fab27bcd" x="321.768341" y="81.724291" style="fill: #1f77b4; stroke: #1f77b4"/>
     <use xlink:href="#m16fab27bcd" x="310.979913" y="90.175648" style="fill: #1f77b4; stroke: #1f77b4"/>
     <use xlink:href="#m16fab27bcd" x="341.065548" y="63.419044" style="fill: #1f77b4; stroke: #1f77b4"/>
     <use xlink:href="#m16fab27bcd" x="317.729224" y="77.088471" style="fill: #1f77b4; stroke: #1f77b4"/>
     <use xlink:href="#m16fab27bcd" x="303.111177" y="85.98699" style="fill: #1f77b4; stroke: #1f77b4"/>
     <use xlink:href="#m16fab27bcd" x="316.337024" y="64.061059" style="fill: #1f77b4; stroke: #1f77b4"/>
     <use xlink:href="#m16fab27bcd" x="329.976161" y="97.150902" style="fill: #1f77b4; stroke: #1f77b4"/>
     <use xlink:href="#m16fab27bcd" x="285.654726" y="93.186909" style="fill: #1f77b4; stroke: #1f77b4"/>
     <use xlink:href="#m16fab27bcd" x="327.312869" y="77.671024" style="fill: #1f77b4; stroke: #1f77b4"/>
     <use xlink:href="#m16fab27bcd" x="337.468863" y="102.176954" style="fill: #1f77b4; stroke: #1f77b4"/>
     <use xlink:href="#m16fab27bcd" x="334.254698" y="81.058628" style="fill: #1f77b4; stroke: #1f77b4"/>
     <use xlink:href="#m16fab27bcd" x="332.637457" y="73.871803" style="fill: #1f77b4; stroke: #1f77b4"/>
     <use xlink:href="#m16fab27bcd" x="365.728852" y="69.201545" style="fill: #1f77b4; stroke: #1f77b4"/>
     <use xlink:href="#m16fab27bcd" x="325.961304" y="76.594703" style="fill: #1f77b4; stroke: #1f77b4"/>
     <use xlink:href="#m16fab27bcd" x="307.366077" y="93.231981" style="fill: #1f77b4; stroke: #1f77b4"/>
     <use xlink:href="#m16fab27bcd" x="291.01755" y="96.848831" style="fill: #1f77b4; stroke: #1f77b4"/>
     <use xlink:href="#m16fab27bcd" x="335.527655" y="91.631167" style="fill: #1f77b4; stroke: #1f77b4"/>
     <use xlink:href="#m16fab27bcd" x="332.687944" y="66.562712" style="fill: #1f77b4; stroke: #1f77b4"/>
     <use xlink:href="#m16fab27bcd" x="328.002025" y="74.576615" style="fill: #1f77b4; stroke: #1f77b4"/>
     <use xlink:href="#m16fab27bcd" x="308.37062" y="82.617917" style="fill: #1f77b4; stroke: #1f77b4"/>
     <use xlink:href="#m16fab27bcd" x="350.281234" y="94.094229" style="fill: #1f77b4; stroke: #1f77b4"/>
     <use xlink:href="#m16fab27bcd" x="341.086148" y="61.767013" style="fill: #1f77b4; stroke: #1f77b4"/>
     <use xlink:href="#m16fab27bcd" x="332.366209" y="100.449731" style="fill: #1f77b4; stroke: #1f77b4"/>
     <use xlink:href="#m16fab27bcd" x="330.044299" y="82.267826" style="fill: #1f77b4; stroke: #1f77b4"/>
     <use xlink:href="#m16fab27bcd" x="332.5418" y="72.999303" style="fill: #1f77b4; stroke: #1f77b4"/>
     <use xlink:href="#m16fab27bcd" x="310.437259" y="90.918662" style="fill: #1f77b4; stroke: #1f77b4"/>
     <use xlink:href="#m16fab27bcd" x="321.585562" y="92.298451" style="fill: #1f77b4; stroke: #1f77b4"/>
     <use xlink:href="#m16fab27bcd" x="326.919423" y="82.634174" style="fill: #1f77b4; stroke: #1f77b4"/>
     <use xlink:href="#m16fab27bcd" x="370.916689" y="92.973631" style="fill: #1f77b4; stroke: #1f77b4"/>
     <use xlink:href="#m16fab27bcd" x="310.395691" y="76.5398" style="fill: #1f77b4; stroke: #1f77b4"/>
     <use xlink:href="#m16fab27bcd" x="339.716454" y="55.407876" style="fill: #1f77b4; stroke: #1f77b4"/>
     <use xlink:href="#m16fab27bcd" x="353.00961" y="72.005689" style="fill: #1f77b4; stroke: #1f77b4"/>
     <use xlink:href="#m16fab27bcd" x="329.445641" y="71.178944" style="fill: #1f77b4; stroke: #1f77b4"/>
     <use xlink:href="#m16fab27bcd" x="313.438521" y="84.933548" style="fill: #1f77b4; stroke: #1f77b4"/>
     <use xlink:href="#m16fab27bcd" x="297.985638" y="83.94325" style="fill: #1f77b4; stroke: #1f77b4"/>
     <use xlink:href="#m16fab27bcd" x="341.310045" y="83.726008" style="fill: #1f77b4; stroke: #1f77b4"/>
     <use xlink:href="#m16fab27bcd" x="310.53753" y="85.428165" style="fill: #1f77b4; stroke: #1f77b4"/>
     <use xlink:href="#m16fab27bcd" x="337.083006" y="84.248523" style="fill: #1f77b4; stroke: #1f77b4"/>
     <use xlink:href="#m16fab27bcd" x="339.312744" y="96.21987" style="fill: #1f77b4; stroke: #1f77b4"/>
     <use xlink:href="#m16fab27bcd" x="308.831852" y="87.093795" style="fill: #1f77b4; stroke: #1f77b4"/>
     <use xlink:href="#m16fab27bcd" x="301.041717" y="47.963067" style="fill: #1f77b4; stroke: #1f77b4"/>
     <use xlink:href="#m16fab27bcd" x="304.828025" y="70.971922" style="fill: #1f77b4; stroke: #1f77b4"/>
     <use xlink:href="#m16fab27bcd" x="312.450882" y="87.17482" style="fill: #1f77b4; stroke: #1f77b4"/>
     <use xlink:href="#m16fab27bcd" x="329.592064" y="97.889216" style="fill: #1f77b4; stroke: #1f77b4"/>
     <use xlink:href="#m16fab27bcd" x="312.50975" y="83.009019" style="fill: #1f77b4; stroke: #1f77b4"/>
     <use xlink:href="#m16fab27bcd" x="309.262213" y="90.67588" style="fill: #1f77b4; stroke: #1f77b4"/>
     <use xlink:href="#m16fab27bcd" x="343.508734" y="69.950048" style="fill: #1f77b4; stroke: #1f77b4"/>
     <use xlink:href="#m16fab27bcd" x="316.425184" y="82.302373" style="fill: #1f77b4; stroke: #1f77b4"/>
     <use xlink:href="#m16fab27bcd" x="346.171724" y="97.525865" style="fill: #1f77b4; stroke: #1f77b4"/>
     <use xlink:href="#m16fab27bcd" x="330.242353" y="58.953767" style="fill: #1f77b4; stroke: #1f77b4"/>
     <use xlink:href="#m16fab27bcd" x="359.071574" y="103.348821" style="fill: #1f77b4; stroke: #1f77b4"/>
     <use xlink:href="#m16fab27bcd" x="310.739811" y="79.435032" style="fill: #1f77b4; stroke: #1f77b4"/>
     <use xlink:href="#m16fab27bcd" x="300.830394" y="88.926578" style="fill: #1f77b4; stroke: #1f77b4"/>
     <use xlink:href="#m16fab27bcd" x="321.820214" y="65.455124" style="fill: #1f77b4; stroke: #1f77b4"/>
     <use xlink:href="#m16fab27bcd" x="323.448394" y="78.887507" style="fill: #1f77b4; stroke: #1f77b4"/>
     <use xlink:href="#m16fab27bcd" x="333.332586" y="75.184006" style="fill: #1f77b4; stroke: #1f77b4"/>
     <use xlink:href="#m16fab27bcd" x="324.750787" y="94.924279" style="fill: #1f77b4; stroke: #1f77b4"/>
     <use xlink:href="#m16fab27bcd" x="338.245195" y="76.454215" style="fill: #1f77b4; stroke: #1f77b4"/>
     <use xlink:href="#m16fab27bcd" x="304.819405" y="89.085977" style="fill: #1f77b4; stroke: #1f77b4"/>
     <use xlink:href="#m16fab27bcd" x="339.978813" y="74.480912" style="fill: #1f77b4; stroke: #1f77b4"/>
     <use xlink:href="#m16fab27bcd" x="311.489843" y="84.409219" style="fill: #1f77b4; stroke: #1f77b4"/>
     <use xlink:href="#m16fab27bcd" x="321.710865" y="74.350254" style="fill: #1f77b4; stroke: #1f77b4"/>
     <use xlink:href="#m16fab27bcd" x="346.383018" y="80.603295" style="fill: #1f77b4; stroke: #1f77b4"/>
     <use xlink:href="#m16fab27bcd" x="344.970218" y="71.443347" style="fill: #1f77b4; stroke: #1f77b4"/>
     <use xlink:href="#m16fab27bcd" x="327.896828" y="97.718717" style="fill: #1f77b4; stroke: #1f77b4"/>
     <use xlink:href="#m16fab27bcd" x="306.042758" y="72.941255" style="fill: #1f77b4; stroke: #1f77b4"/>
     <use xlink:href="#m16fab27bcd" x="293.943812" y="79.998474" style="fill: #1f77b4; stroke: #1f77b4"/>
     <use xlink:href="#m16fab27bcd" x="341.980613" y="79.619197" style="fill: #1f77b4; stroke: #1f77b4"/>
     <use xlink:href="#m16fab27bcd" x="313.59666" y="90.949487" style="fill: #1f77b4; stroke: #1f77b4"/>
     <use xlink:href="#m16fab27bcd" x="338.714396" y="75.998095" style="fill: #1f77b4; stroke: #1f77b4"/>
     <use xlink:href="#m16fab27bcd" x="319.19427" y="69.266108" style="fill: #1f77b4; stroke: #1f77b4"/>
     <use xlink:href="#m16fab27bcd" x="339.384977" y="61.062979" style="fill: #1f77b4; stroke: #1f77b4"/>
     <use xlink:href="#m16fab27bcd" x="334.297753" y="83.213475" style="fill: #1f77b4; stroke: #1f77b4"/>
     <use xlink:href="#m16fab27bcd" x="321.719216" y="103.288247" style="fill: #1f77b4; stroke: #1f77b4"/>
     <use xlink:href="#m16fab27bcd" x="326.922435" y="81.526064" style="fill: #1f77b4; stroke: #1f77b4"/>
     <use xlink:href="#m16fab27bcd" x="300.685149" y="81.63463" style="fill: #1f77b4; stroke: #1f77b4"/>
     <use xlink:href="#m16fab27bcd" x="348.052646" y="89.678512" style="fill: #1f77b4; stroke: #1f77b4"/>
     <use xlink:href="#m16fab27bcd" x="307.244402" y="68.81659" style="fill: #1f77b4; stroke: #1f77b4"/>
     <use xlink:href="#m16fab27bcd" x="335.491068" y="46.631246" style="fill: #1f77b4; stroke: #1f77b4"/>
     <use xlink:href="#m16fab27bcd" x="300.888988" y="73.177758" style="fill: #1f77b4; stroke: #1f77b4"/>
     <use xlink:href="#m16fab27bcd" x="329.850198" y="80.675514" style="fill: #1f77b4; stroke: #1f77b4"/>
     <use xlink:href="#m16fab27bcd" x="340.386363" y="81.684959" style="fill: #1f77b4; stroke: #1f77b4"/>
     <use xlink:href="#m16fab27bcd" x="289.942009" y="90.957915" style="fill: #1f77b4; stroke: #1f77b4"/>
     <use xlink:href="#m16fab27bcd" x="348.429448" y="68.055585" style="fill: #1f77b4; stroke: #1f77b4"/>
     <use xlink:href="#m16fab27bcd" x="317.641546" y="75.636426" style="fill: #1f77b4; stroke: #1f77b4"/>
     <use xlink:href="#m16fab27bcd" x="373.581818" y="81.701534" style="fill: #1f77b4; stroke: #1f77b4"/>
     <use xlink:href="#m16fab27bcd" x="324.047643" y="79.186213" style="fill: #1f77b4; stroke: #1f77b4"/>
     <use xlink:href="#m16fab27bcd" x="335.007964" y="85.304806" style="fill: #1f77b4; stroke: #1f77b4"/>
     <use xlink:href="#m16fab27bcd" x="334.992967" y="103.397796" style="fill: #1f77b4; stroke: #1f77b4"/>
     <use xlink:href="#m16fab27bcd" x="330.213579" y="80.773633" style="fill: #1f77b4; stroke: #1f77b4"/>
     <use xlink:href="#m16fab27bcd" x="320.399743" y="86.737841" style="fill: #1f77b4; stroke: #1f77b4"/>
     <use xlink:href="#m16fab27bcd" x="313.45533" y="90.574169" style="fill: #1f77b4; stroke: #1f77b4"/>
     <use xlink:href="#m16fab27bcd" x="283.178762" y="84.387495" style="fill: #1f77b4; stroke: #1f77b4"/>
     <use xlink:href="#m16fab27bcd" x="343.678887" y="85.151811" style="fill: #1f77b4; stroke: #1f77b4"/>
     <use xlink:href="#m16fab27bcd" x="335.506524" y="93.598646" style="fill: #1f77b4; stroke: #1f77b4"/>
     <use xlink:href="#m16fab27bcd" x="301.117079" y="89.862401" style="fill: #1f77b4; stroke: #1f77b4"/>
     <use xlink:href="#m16fab27bcd" x="306.081935" y="94.764964" style="fill: #1f77b4; stroke: #1f77b4"/>
     <use xlink:href="#m16fab27bcd" x="332.222489" y="61.172643" style="fill: #1f77b4; stroke: #1f77b4"/>
     <use xlink:href="#m16fab27bcd" x="312.43524" y="100.535141" style="fill: #1f77b4; stroke: #1f77b4"/>
     <use xlink:href="#m16fab27bcd" x="335.890759" y="97.632722" style="fill: #1f77b4; stroke: #1f77b4"/>
     <use xlink:href="#m16fab27bcd" x="303.286465" y="75.733976" style="fill: #1f77b4; stroke: #1f77b4"/>
     <use xlink:href="#m16fab27bcd" x="321.323748" y="89.14125" style="fill: #1f77b4; stroke: #1f77b4"/>
     <use xlink:href="#m16fab27bcd" x="325.464013" y="85.991038" style="fill: #1f77b4; stroke: #1f77b4"/>
     <use xlink:href="#m16fab27bcd" x="357.734009" y="89.012295" style="fill: #1f77b4; stroke: #1f77b4"/>
     <use xlink:href="#m16fab27bcd" x="308.068024" y="86.508474" style="fill: #1f77b4; stroke: #1f77b4"/>
     <use xlink:href="#m16fab27bcd" x="316.939117" y="74.592504" style="fill: #1f77b4; stroke: #1f77b4"/>
     <use xlink:href="#m16fab27bcd" x="288.964594" y="76.516179" style="fill: #1f77b4; stroke: #1f77b4"/>
     <use xlink:href="#m16fab27bcd" x="314.661788" y="72.537707" style="fill: #1f77b4; stroke: #1f77b4"/>
     <use xlink:href="#m16fab27bcd" x="323.408685" y="75.465203" style="fill: #1f77b4; stroke: #1f77b4"/>
     <use xlink:href="#m16fab27bcd" x="317.317594" y="76.380121" style="fill: #1f77b4; stroke: #1f77b4"/>
     <use xlink:href="#m16fab27bcd" x="353.733424" y="89.731689" style="fill: #1f77b4; stroke: #1f77b4"/>
     <use xlink:href="#m16fab27bcd" x="322.353497" y="86.86214" style="fill: #1f77b4; stroke: #1f77b4"/>
     <use xlink:href="#m16fab27bcd" x="352.479123" y="86.269269" style="fill: #1f77b4; stroke: #1f77b4"/>
     <use xlink:href="#m16fab27bcd" x="311.270229" y="87.90621" style="fill: #1f77b4; stroke: #1f77b4"/>
     <use xlink:href="#m16fab27bcd" x="321.848097" y="90.347162" style="fill: #1f77b4; stroke: #1f77b4"/>
     <use xlink:href="#m16fab27bcd" x="317.72428" y="79.564974" style="fill: #1f77b4; stroke: #1f77b4"/>
     <use xlink:href="#m16fab27bcd" x="322.206802" y="71.915237" style="fill: #1f77b4; stroke: #1f77b4"/>
     <use xlink:href="#m16fab27bcd" x="318.594199" y="83.66844" style="fill: #1f77b4; stroke: #1f77b4"/>
     <use xlink:href="#m16fab27bcd" x="329.055864" y="55.888964" style="fill: #1f77b4; stroke: #1f77b4"/>
     <use xlink:href="#m16fab27bcd" x="310.297277" y="59.531566" style="fill: #1f77b4; stroke: #1f77b4"/>
     <use xlink:href="#m16fab27bcd" x="303.281016" y="78.75103" style="fill: #1f77b4; stroke: #1f77b4"/>
     <use xlink:href="#m16fab27bcd" x="318.239263" y="90.594014" style="fill: #1f77b4; stroke: #1f77b4"/>
     <use xlink:href="#m16fab27bcd" x="336.64019" y="74.54427" style="fill: #1f77b4; stroke: #1f77b4"/>
     <use xlink:href="#m16fab27bcd" x="315.725596" y="105.094041" style="fill: #1f77b4; stroke: #1f77b4"/>
     <use xlink:href="#m16fab27bcd" x="316.810018" y="79.769091" style="fill: #1f77b4; stroke: #1f77b4"/>
     <use xlink:href="#m16fab27bcd" x="324.285025" y="72.7746" style="fill: #1f77b4; stroke: #1f77b4"/>
     <use xlink:href="#m16fab27bcd" x="358.513561" y="76.653986" style="fill: #1f77b4; stroke: #1f77b4"/>
     <use xlink:href="#m16fab27bcd" x="334.313244" y="79.667274" style="fill: #1f77b4; stroke: #1f77b4"/>
     <use xlink:href="#m16fab27bcd" x="345.027418" y="75.321106" style="fill: #1f77b4; stroke: #1f77b4"/>
     <use xlink:href="#m16fab27bcd" x="337.526382" y="60.832038" style="fill: #1f77b4; stroke: #1f77b4"/>
     <use xlink:href="#m16fab27bcd" x="328.274851" y="84.420883" style="fill: #1f77b4; stroke: #1f77b4"/>
     <use xlink:href="#m16fab27bcd" x="332.160743" y="68.461449" style="fill: #1f77b4; stroke: #1f77b4"/>
     <use xlink:href="#m16fab27bcd" x="333.137729" y="69.318889" style="fill: #1f77b4; stroke: #1f77b4"/>
     <use xlink:href="#m16fab27bcd" x="312.399245" y="91.192982" style="fill: #1f77b4; stroke: #1f77b4"/>
     <use xlink:href="#m16fab27bcd" x="314.595303" y="95.721514" style="fill: #1f77b4; stroke: #1f77b4"/>
     <use xlink:href="#m16fab27bcd" x="326.2073" y="86.224855" style="fill: #1f77b4; stroke: #1f77b4"/>
     <use xlink:href="#m16fab27bcd" x="346.05115" y="95.991912" style="fill: #1f77b4; stroke: #1f77b4"/>
     <use xlink:href="#m16fab27bcd" x="351.804749" y="92.475858" style="fill: #1f77b4; stroke: #1f77b4"/>
     <use xlink:href="#m16fab27bcd" x="302.31253" y="90.700399" style="fill: #1f77b4; stroke: #1f77b4"/>
     <use xlink:href="#m16fab27bcd" x="358.827853" y="81.802452" style="fill: #1f77b4; stroke: #1f77b4"/>
     <use xlink:href="#m16fab27bcd" x="333.63402" y="83.433396" style="fill: #1f77b4; stroke: #1f77b4"/>
     <use xlink:href="#m16fab27bcd" x="322.656775" y="87.08514" style="fill: #1f77b4; stroke: #1f77b4"/>
     <use xlink:href="#m16fab27bcd" x="325.152027" y="75.738465" style="fill: #1f77b4; stroke: #1f77b4"/>
     <use xlink:href="#m16fab27bcd" x="353.990984" y="102.606624" style="fill: #1f77b4; stroke: #1f77b4"/>
     <use xlink:href="#m16fab27bcd" x="352.795206" y="75.360115" style="fill: #1f77b4; stroke: #1f77b4"/>
     <use xlink:href="#m16fab27bcd" x="317.736457" y="87.559696" style="fill: #1f77b4; stroke: #1f77b4"/>
     <use xlink:href="#m16fab27bcd" x="342.745902" y="78.750938" style="fill: #1f77b4; stroke: #1f77b4"/>
     <use xlink:href="#m16fab27bcd" x="297.070607" y="77.23018" style="fill: #1f77b4; stroke: #1f77b4"/>
     <use xlink:href="#m16fab27bcd" x="344.530144" y="71.618595" style="fill: #1f77b4; stroke: #1f77b4"/>
     <use xlink:href="#m16fab27bcd" x="313.14552" y="96.567853" style="fill: #1f77b4; stroke: #1f77b4"/>
     <use xlink:href="#m16fab27bcd" x="318.476932" y="44.443636" style="fill: #1f77b4; stroke: #1f77b4"/>
     <use xlink:href="#m16fab27bcd" x="296.876869" y="90.905491" style="fill: #1f77b4; stroke: #1f77b4"/>
     <use xlink:href="#m16fab27bcd" x="331.199526" y="82.760107" style="fill: #1f77b4; stroke: #1f77b4"/>
     <use xlink:href="#m16fab27bcd" x="320.705435" y="58.385006" style="fill: #1f77b4; stroke: #1f77b4"/>
     <use xlink:href="#m16fab27bcd" x="309.133875" y="81.509796" style="fill: #1f77b4; stroke: #1f77b4"/>
     <use xlink:href="#m16fab27bcd" x="327.830511" y="90.474543" style="fill: #1f77b4; stroke: #1f77b4"/>
     <use xlink:href="#m16fab27bcd" x="298.725792" y="78.293443" style="fill: #1f77b4; stroke: #1f77b4"/>
     <use xlink:href="#m16fab27bcd" x="356.389463" y="76.759369" style="fill: #1f77b4; stroke: #1f77b4"/>
     <use xlink:href="#m16fab27bcd" x="325.848896" y="80.409572" style="fill: #1f77b4; stroke: #1f77b4"/>
     <use xlink:href="#m16fab27bcd" x="319.673955" y="67.925689" style="fill: #1f77b4; stroke: #1f77b4"/>
     <use xlink:href="#m16fab27bcd" x="315.296897" y="96.735456" style="fill: #1f77b4; stroke: #1f77b4"/>
     <use xlink:href="#m16fab27bcd" x="296.227375" y="80.451777" style="fill: #1f77b4; stroke: #1f77b4"/>
     <use xlink:href="#m16fab27bcd" x="343.047425" y="78.654462" style="fill: #1f77b4; stroke: #1f77b4"/>
     <use xlink:href="#m16fab27bcd" x="318.629394" y="76.148548" style="fill: #1f77b4; stroke: #1f77b4"/>
     <use xlink:href="#m16fab27bcd" x="327.552408" y="71.977819" style="fill: #1f77b4; stroke: #1f77b4"/>
     <use xlink:href="#m16fab27bcd" x="347.757369" y="92.171797" style="fill: #1f77b4; stroke: #1f77b4"/>
     <use xlink:href="#m16fab27bcd" x="186.062406" y="187.489634" style="fill: #1f77b4; stroke: #1f77b4"/>
     <use xlink:href="#m16fab27bcd" x="245.626729" y="209.547479" style="fill: #1f77b4; stroke: #1f77b4"/>
     <use xlink:href="#m16fab27bcd" x="145.694463" y="177.854428" style="fill: #1f77b4; stroke: #1f77b4"/>
     <use xlink:href="#m16fab27bcd" x="125.280378" y="182.845682" style="fill: #1f77b4; stroke: #1f77b4"/>
     <use xlink:href="#m16fab27bcd" x="210.005198" y="125.548723" style="fill: #1f77b4; stroke: #1f77b4"/>
     <use xlink:href="#m16fab27bcd" x="262.185733" y="111.587347" style="fill: #1f77b4; stroke: #1f77b4"/>
     <use xlink:href="#m16fab27bcd" x="256.058285" y="135.776089" style="fill: #1f77b4; stroke: #1f77b4"/>
     <use xlink:href="#m16fab27bcd" x="120.967845" y="183.695345" style="fill: #1f77b4; stroke: #1f77b4"/>
     <use xlink:href="#m16fab27bcd" x="185.008755" y="237.84562" style="fill: #1f77b4; stroke: #1f77b4"/>
     <use xlink:href="#m16fab27bcd" x="198.513723" y="177.53294" style="fill: #1f77b4; stroke: #1f77b4"/>
     <use xlink:href="#m16fab27bcd" x="271.494107" y="85.118924" style="fill: #1f77b4; stroke: #1f77b4"/>
     <use xlink:href="#m16fab27bcd" x="205.881346" y="196.926373" style="fill: #1f77b4; stroke: #1f77b4"/>
     <use xlink:href="#m16fab27bcd" x="69.218182" y="94.206893" style="fill: #1f77b4; stroke: #1f77b4"/>
     <use xlink:href="#m16fab27bcd" x="302.688686" y="208.819515" style="fill: #1f77b4; stroke: #1f77b4"/>
     <use xlink:href="#m16fab27bcd" x="243.047789" y="239.118063" style="fill: #1f77b4; stroke: #1f77b4"/>
     <use xlink:href="#m16fab27bcd" x="101.961255" y="214.993545" style="fill: #1f77b4; stroke: #1f77b4"/>
     <use xlink:href="#m16fab27bcd" x="136.161025" y="82.059182" style="fill: #1f77b4; stroke: #1f77b4"/>
     <use xlink:href="#m16fab27bcd" x="243.451412" y="186.42922" style="fill: #1f77b4; stroke: #1f77b4"/>
     <use xlink:href="#m16fab27bcd" x="254.162465" y="95.809054" style="fill: #1f77b4; stroke: #1f77b4"/>
     <use xlink:href="#m16fab27bcd" x="313.24272" y="242.116364" style="fill: #1f77b4; stroke: #1f77b4"/>
    </g>
   </g>
   <g id="matplotlib.axis_1">
    <g id="xtick_1">
     <g id="line2d_1">
      <defs>
       <path id="m38e8d7b523" d="M 0 0 
L 0 3.5 
" style="stroke: #000000; stroke-width: 0.8"/>
      </defs>
      <g>
       <use xlink:href="#m38e8d7b523" x="57.64729" y="252" style="stroke: #000000; stroke-width: 0.8"/>
      </g>
     </g>
     <g id="text_1">
      <!-- -6 -->
      <g transform="translate(52.64729 265.875)scale(0.1 -0.1)">
       <defs>
        <path id="SimHei-2d" d="M 2975 2125 
L 125 2125 
L 125 2525 
L 2975 2525 
L 2975 2125 
z
" transform="scale(0.015625)"/>
        <path id="SimHei-36" d="M 250 1612 
Q 275 1975 387 2225 
Q 500 2475 725 2850 
L 1750 4450 
L 2325 4450 
L 1275 2800 
Q 1950 2975 2350 2750 
Q 2750 2525 2887 2237 
Q 3025 1950 3037 1612 
Q 3050 1275 2937 950 
Q 2825 625 2537 362 
Q 2250 100 1737 75 
Q 1225 50 862 262 
Q 500 475 362 862 
Q 225 1250 250 1612 
z
M 1025 787 
Q 1250 550 1625 525 
Q 2000 500 2250 775 
Q 2500 1050 2500 1575 
Q 2500 2100 2187 2300 
Q 1875 2500 1487 2450 
Q 1100 2400 925 2075 
Q 750 1750 775 1387 
Q 800 1025 1025 787 
z
" transform="scale(0.015625)"/>
       </defs>
       <use xlink:href="#SimHei-2d"/>
       <use xlink:href="#SimHei-36" x="50"/>
      </g>
     </g>
    </g>
    <g id="xtick_2">
     <g id="line2d_2">
      <g>
       <use xlink:href="#m38e8d7b523" x="102.081557" y="252" style="stroke: #000000; stroke-width: 0.8"/>
      </g>
     </g>
     <g id="text_2">
      <!-- -4 -->
      <g transform="translate(97.081557 265.875)scale(0.1 -0.1)">
       <defs>
        <path id="SimHei-34" d="M 2000 1100 
L 75 1100 
L 75 1525 
L 2100 4450 
L 2475 4450 
L 2475 1525 
L 3075 1525 
L 3075 1100 
L 2475 1100 
L 2475 150 
L 2000 150 
L 2000 1100 
z
M 2000 1525 
L 2000 3500 
L 600 1525 
L 2000 1525 
z
" transform="scale(0.015625)"/>
       </defs>
       <use xlink:href="#SimHei-2d"/>
       <use xlink:href="#SimHei-34" x="50"/>
      </g>
     </g>
    </g>
    <g id="xtick_3">
     <g id="line2d_3">
      <g>
       <use xlink:href="#m38e8d7b523" x="146.515823" y="252" style="stroke: #000000; stroke-width: 0.8"/>
      </g>
     </g>
     <g id="text_3">
      <!-- -2 -->
      <g transform="translate(141.515823 265.875)scale(0.1 -0.1)">
       <defs>
        <path id="SimHei-32" d="M 300 250 
Q 325 625 650 925 
Q 975 1225 1475 1862 
Q 1975 2500 2125 2850 
Q 2275 3200 2237 3450 
Q 2200 3700 2000 3862 
Q 1800 4025 1537 4000 
Q 1275 3975 1037 3800 
Q 800 3625 675 3275 
L 200 3350 
Q 400 3925 712 4187 
Q 1025 4450 1450 4475 
Q 1700 4500 1900 4462 
Q 2100 4425 2312 4287 
Q 2525 4150 2662 3875 
Q 2800 3600 2762 3212 
Q 2725 2825 2375 2287 
Q 2025 1750 1025 600 
L 2825 600 
L 2825 150 
L 300 150 
L 300 250 
z
" transform="scale(0.015625)"/>
       </defs>
       <use xlink:href="#SimHei-2d"/>
       <use xlink:href="#SimHei-32" x="50"/>
      </g>
     </g>
    </g>
    <g id="xtick_4">
     <g id="line2d_4">
      <g>
       <use xlink:href="#m38e8d7b523" x="190.95009" y="252" style="stroke: #000000; stroke-width: 0.8"/>
      </g>
     </g>
     <g id="text_4">
      <!-- 0 -->
      <g transform="translate(188.45009 265.875)scale(0.1 -0.1)">
       <defs>
        <path id="SimHei-30" d="M 225 2537 
Q 250 3200 412 3587 
Q 575 3975 875 4225 
Q 1175 4475 1612 4475 
Q 2050 4475 2375 4112 
Q 2700 3750 2800 3200 
Q 2900 2650 2862 1937 
Q 2825 1225 2612 775 
Q 2400 325 1975 150 
Q 1550 -25 1125 187 
Q 700 400 525 750 
Q 350 1100 275 1487 
Q 200 1875 225 2537 
z
M 750 2687 
Q 675 2000 800 1462 
Q 925 925 1212 700 
Q 1500 475 1800 612 
Q 2100 750 2237 1162 
Q 2375 1575 2375 2062 
Q 2375 2550 2337 2950 
Q 2300 3350 2112 3675 
Q 1925 4000 1612 4012 
Q 1300 4025 1062 3700 
Q 825 3375 750 2687 
z
" transform="scale(0.015625)"/>
       </defs>
       <use xlink:href="#SimHei-30"/>
      </g>
     </g>
    </g>
    <g id="xtick_5">
     <g id="line2d_5">
      <g>
       <use xlink:href="#m38e8d7b523" x="235.384356" y="252" style="stroke: #000000; stroke-width: 0.8"/>
      </g>
     </g>
     <g id="text_5">
      <!-- 2 -->
      <g transform="translate(232.884356 265.875)scale(0.1 -0.1)">
       <use xlink:href="#SimHei-32"/>
      </g>
     </g>
    </g>
    <g id="xtick_6">
     <g id="line2d_6">
      <g>
       <use xlink:href="#m38e8d7b523" x="279.818623" y="252" style="stroke: #000000; stroke-width: 0.8"/>
      </g>
     </g>
     <g id="text_6">
      <!-- 4 -->
      <g transform="translate(277.318623 265.875)scale(0.1 -0.1)">
       <use xlink:href="#SimHei-34"/>
      </g>
     </g>
    </g>
    <g id="xtick_7">
     <g id="line2d_7">
      <g>
       <use xlink:href="#m38e8d7b523" x="324.252889" y="252" style="stroke: #000000; stroke-width: 0.8"/>
      </g>
     </g>
     <g id="text_7">
      <!-- 6 -->
      <g transform="translate(321.752889 265.875)scale(0.1 -0.1)">
       <use xlink:href="#SimHei-36"/>
      </g>
     </g>
    </g>
    <g id="xtick_8">
     <g id="line2d_8">
      <g>
       <use xlink:href="#m38e8d7b523" x="368.687156" y="252" style="stroke: #000000; stroke-width: 0.8"/>
      </g>
     </g>
     <g id="text_8">
      <!-- 8 -->
      <g transform="translate(366.187156 265.875)scale(0.1 -0.1)">
       <defs>
        <path id="SimHei-38" d="M 175 1375 
Q 175 1675 325 1962 
Q 475 2250 825 2425 
Q 525 2600 425 2812 
Q 325 3025 312 3300 
Q 300 3575 387 3775 
Q 475 3975 650 4150 
Q 825 4325 1037 4387 
Q 1250 4450 1500 4450 
Q 1750 4450 1950 4400 
Q 2150 4350 2375 4187 
Q 2600 4025 2700 3725 
Q 2800 3425 2687 3025 
Q 2575 2625 2100 2400 
Q 2525 2275 2700 2012 
Q 2875 1750 2875 1375 
Q 2875 1000 2762 775 
Q 2650 550 2512 400 
Q 2375 250 2137 162 
Q 1900 75 1537 75 
Q 1175 75 912 162 
Q 650 250 475 425 
Q 300 600 237 837 
Q 175 1075 175 1375 
z
M 687 1400 
Q 675 1100 787 875 
Q 900 650 1200 587 
Q 1500 525 1825 600 
Q 2150 675 2275 950 
Q 2400 1225 2362 1500 
Q 2325 1775 2050 1962 
Q 1775 2150 1450 2125 
Q 1125 2100 912 1900 
Q 700 1700 687 1400 
z
M 775 3350 
Q 775 3100 950 2875 
Q 1125 2650 1500 2650 
Q 1875 2650 2062 2875 
Q 2250 3100 2237 3412 
Q 2225 3725 2012 3875 
Q 1800 4025 1437 4000 
Q 1075 3975 925 3787 
Q 775 3600 775 3350 
z
" transform="scale(0.015625)"/>
       </defs>
       <use xlink:href="#SimHei-38"/>
      </g>
     </g>
    </g>
   </g>
   <g id="matplotlib.axis_2">
    <g id="ytick_1">
     <g id="line2d_9">
      <defs>
       <path id="m49d606f095" d="M 0 0 
L -3.5 0 
" style="stroke: #000000; stroke-width: 0.8"/>
      </defs>
      <g>
       <use xlink:href="#m49d606f095" x="54" y="251.990408" style="stroke: #000000; stroke-width: 0.8"/>
      </g>
     </g>
     <g id="text_9">
      <!-- -6 -->
      <g transform="translate(37 255.427908)scale(0.1 -0.1)">
       <use xlink:href="#SimHei-2d"/>
       <use xlink:href="#SimHei-36" x="50"/>
      </g>
     </g>
    </g>
    <g id="ytick_2">
     <g id="line2d_10">
      <g>
       <use xlink:href="#m49d606f095" x="54" y="223.549979" style="stroke: #000000; stroke-width: 0.8"/>
      </g>
     </g>
     <g id="text_10">
      <!-- -4 -->
      <g transform="translate(37 226.987479)scale(0.1 -0.1)">
       <use xlink:href="#SimHei-2d"/>
       <use xlink:href="#SimHei-34" x="50"/>
      </g>
     </g>
    </g>
    <g id="ytick_3">
     <g id="line2d_11">
      <g>
       <use xlink:href="#m49d606f095" x="54" y="195.109551" style="stroke: #000000; stroke-width: 0.8"/>
      </g>
     </g>
     <g id="text_11">
      <!-- -2 -->
      <g transform="translate(37 198.547051)scale(0.1 -0.1)">
       <use xlink:href="#SimHei-2d"/>
       <use xlink:href="#SimHei-32" x="50"/>
      </g>
     </g>
    </g>
    <g id="ytick_4">
     <g id="line2d_12">
      <g>
       <use xlink:href="#m49d606f095" x="54" y="166.669122" style="stroke: #000000; stroke-width: 0.8"/>
      </g>
     </g>
     <g id="text_12">
      <!-- 0 -->
      <g transform="translate(42 170.106622)scale(0.1 -0.1)">
       <use xlink:href="#SimHei-30"/>
      </g>
     </g>
    </g>
    <g id="ytick_5">
     <g id="line2d_13">
      <g>
       <use xlink:href="#m49d606f095" x="54" y="138.228694" style="stroke: #000000; stroke-width: 0.8"/>
      </g>
     </g>
     <g id="text_13">
      <!-- 2 -->
      <g transform="translate(42 141.666194)scale(0.1 -0.1)">
       <use xlink:href="#SimHei-32"/>
      </g>
     </g>
    </g>
    <g id="ytick_6">
     <g id="line2d_14">
      <g>
       <use xlink:href="#m49d606f095" x="54" y="109.788266" style="stroke: #000000; stroke-width: 0.8"/>
      </g>
     </g>
     <g id="text_14">
      <!-- 4 -->
      <g transform="translate(42 113.225766)scale(0.1 -0.1)">
       <use xlink:href="#SimHei-34"/>
      </g>
     </g>
    </g>
    <g id="ytick_7">
     <g id="line2d_15">
      <g>
       <use xlink:href="#m49d606f095" x="54" y="81.347837" style="stroke: #000000; stroke-width: 0.8"/>
      </g>
     </g>
     <g id="text_15">
      <!-- 6 -->
      <g transform="translate(42 84.785337)scale(0.1 -0.1)">
       <use xlink:href="#SimHei-36"/>
      </g>
     </g>
    </g>
    <g id="ytick_8">
     <g id="line2d_16">
      <g>
       <use xlink:href="#m49d606f095" x="54" y="52.907409" style="stroke: #000000; stroke-width: 0.8"/>
      </g>
     </g>
     <g id="text_16">
      <!-- 8 -->
      <g transform="translate(42 56.344909)scale(0.1 -0.1)">
       <use xlink:href="#SimHei-38"/>
      </g>
     </g>
    </g>
   </g>
   <g id="patch_3">
    <path d="M 54 252 
L 54 34.56 
" style="fill: none; stroke: #000000; stroke-width: 0.8; stroke-linejoin: miter; stroke-linecap: square"/>
   </g>
   <g id="patch_4">
    <path d="M 388.8 252 
L 388.8 34.56 
" style="fill: none; stroke: #000000; stroke-width: 0.8; stroke-linejoin: miter; stroke-linecap: square"/>
   </g>
   <g id="patch_5">
    <path d="M 54 252 
L 388.8 252 
" style="fill: none; stroke: #000000; stroke-width: 0.8; stroke-linejoin: miter; stroke-linecap: square"/>
   </g>
   <g id="patch_6">
    <path d="M 54 34.56 
L 388.8 34.56 
" style="fill: none; stroke: #000000; stroke-width: 0.8; stroke-linejoin: miter; stroke-linecap: square"/>
   </g>
  </g>
 </g>
 <defs>
  <clipPath id="p5222e6136c">
   <rect x="54" y="34.56" width="334.8" height="217.44"/>
  </clipPath>
 </defs>
</svg>
