<?xml version="1.0" encoding="utf-8" standalone="no"?>
<!DOCTYPE svg PUBLIC "-//W3C//DTD SVG 1.1//EN"
  "http://www.w3.org/Graphics/SVG/1.1/DTD/svg11.dtd">
<svg xmlns:xlink="http://www.w3.org/1999/xlink" width="432pt" height="288pt" viewBox="0 0 432 288" xmlns="http://www.w3.org/2000/svg" version="1.1">
 <metadata>
  <rdf:RDF xmlns:dc="http://purl.org/dc/elements/1.1/" xmlns:cc="http://creativecommons.org/ns#" xmlns:rdf="http://www.w3.org/1999/02/22-rdf-syntax-ns#">
   <cc:Work>
    <dc:type rdf:resource="http://purl.org/dc/dcmitype/StillImage"/>
    <dc:date>2022-08-01T13:31:31.544325</dc:date>
    <dc:format>image/svg+xml</dc:format>
    <dc:creator>
     <cc:Agent>
      <dc:title>Matplotlib v3.5.1, https://matplotlib.org/</dc:title>
     </cc:Agent>
    </dc:creator>
   </cc:Work>
  </rdf:RDF>
 </metadata>
 <defs>
  <style type="text/css">*{stroke-linejoin: round; stroke-linecap: butt}</style>
 </defs>
 <g id="figure_1">
  <g id="patch_1">
   <path d="M 0 288 
L 432 288 
L 432 0 
L 0 0 
L 0 288 
z
" style="fill: none"/>
  </g>
  <g id="axes_1">
   <g id="patch_2">
    <path d="M 54 252 
L 388.8 252 
L 388.8 34.56 
L 54 34.56 
z
" style="fill: #ffffff"/>
   </g>
   <g id="matplotlib.axis_1">
    <g id="xtick_1">
     <g id="line2d_1">
      <defs>
       <path id="maa7d17a7a8" d="M 0 0 
L 0 3.5 
" style="stroke: #000000; stroke-width: 0.8"/>
      </defs>
      <g>
       <use xlink:href="#maa7d17a7a8" x="69.218182" y="252" style="stroke: #000000; stroke-width: 0.8"/>
      </g>
     </g>
     <g id="text_1">
      <!-- 0 -->
      <g transform="translate(66.718182 265.875)scale(0.1 -0.1)">
       <defs>
        <path id="SimHei-30" d="M 225 2537 
Q 250 3200 412 3587 
Q 575 3975 875 4225 
Q 1175 4475 1612 4475 
Q 2050 4475 2375 4112 
Q 2700 3750 2800 3200 
Q 2900 2650 2862 1937 
Q 2825 1225 2612 775 
Q 2400 325 1975 150 
Q 1550 -25 1125 187 
Q 700 400 525 750 
Q 350 1100 275 1487 
Q 200 1875 225 2537 
z
M 750 2687 
Q 675 2000 800 1462 
Q 925 925 1212 700 
Q 1500 475 1800 612 
Q 2100 750 2237 1162 
Q 2375 1575 2375 2062 
Q 2375 2550 2337 2950 
Q 2300 3350 2112 3675 
Q 1925 4000 1612 4012 
Q 1300 4025 1062 3700 
Q 825 3375 750 2687 
z
" transform="scale(0.015625)"/>
       </defs>
       <use xlink:href="#SimHei-30"/>
      </g>
     </g>
    </g>
    <g id="xtick_2">
     <g id="line2d_2">
      <g>
       <use xlink:href="#maa7d17a7a8" x="119.962369" y="252" style="stroke: #000000; stroke-width: 0.8"/>
      </g>
     </g>
     <g id="text_2">
      <!-- 500 -->
      <g transform="translate(112.462369 265.875)scale(0.1 -0.1)">
       <defs>
        <path id="SimHei-35" d="M 550 1325 
Q 725 650 1150 575 
Q 1575 500 1837 662 
Q 2100 825 2212 1087 
Q 2325 1350 2312 1675 
Q 2300 2000 2137 2225 
Q 1975 2450 1725 2525 
Q 1475 2600 1162 2525 
Q 850 2450 650 2175 
L 225 2225 
Q 275 2375 700 4375 
L 2675 4375 
L 2675 3925 
L 1075 3925 
Q 950 3250 825 2850 
Q 1200 3025 1525 3012 
Q 1850 3000 2150 2862 
Q 2450 2725 2587 2487 
Q 2725 2250 2787 2012 
Q 2850 1775 2837 1500 
Q 2825 1225 2725 937 
Q 2625 650 2425 462 
Q 2225 275 1937 162 
Q 1650 50 1275 75 
Q 900 100 562 350 
Q 225 600 100 1200 
L 550 1325 
z
" transform="scale(0.015625)"/>
       </defs>
       <use xlink:href="#SimHei-35"/>
       <use xlink:href="#SimHei-30" x="50"/>
       <use xlink:href="#SimHei-30" x="100"/>
      </g>
     </g>
    </g>
    <g id="xtick_3">
     <g id="line2d_3">
      <g>
       <use xlink:href="#maa7d17a7a8" x="170.706557" y="252" style="stroke: #000000; stroke-width: 0.8"/>
      </g>
     </g>
     <g id="text_3">
      <!-- 1000 -->
      <g transform="translate(160.706557 265.875)scale(0.1 -0.1)">
       <defs>
        <path id="SimHei-31" d="M 1400 3600 
Q 1075 3275 575 2975 
L 575 3450 
Q 1200 3875 1600 4450 
L 1900 4450 
L 1900 150 
L 1400 150 
L 1400 3600 
z
" transform="scale(0.015625)"/>
       </defs>
       <use xlink:href="#SimHei-31"/>
       <use xlink:href="#SimHei-30" x="50"/>
       <use xlink:href="#SimHei-30" x="100"/>
       <use xlink:href="#SimHei-30" x="150"/>
      </g>
     </g>
    </g>
    <g id="xtick_4">
     <g id="line2d_4">
      <g>
       <use xlink:href="#maa7d17a7a8" x="221.450744" y="252" style="stroke: #000000; stroke-width: 0.8"/>
      </g>
     </g>
     <g id="text_4">
      <!-- 1500 -->
      <g transform="translate(211.450744 265.875)scale(0.1 -0.1)">
       <use xlink:href="#SimHei-31"/>
       <use xlink:href="#SimHei-35" x="50"/>
       <use xlink:href="#SimHei-30" x="100"/>
       <use xlink:href="#SimHei-30" x="150"/>
      </g>
     </g>
    </g>
    <g id="xtick_5">
     <g id="line2d_5">
      <g>
       <use xlink:href="#maa7d17a7a8" x="272.194932" y="252" style="stroke: #000000; stroke-width: 0.8"/>
      </g>
     </g>
     <g id="text_5">
      <!-- 2000 -->
      <g transform="translate(262.194932 265.875)scale(0.1 -0.1)">
       <defs>
        <path id="SimHei-32" d="M 300 250 
Q 325 625 650 925 
Q 975 1225 1475 1862 
Q 1975 2500 2125 2850 
Q 2275 3200 2237 3450 
Q 2200 3700 2000 3862 
Q 1800 4025 1537 4000 
Q 1275 3975 1037 3800 
Q 800 3625 675 3275 
L 200 3350 
Q 400 3925 712 4187 
Q 1025 4450 1450 4475 
Q 1700 4500 1900 4462 
Q 2100 4425 2312 4287 
Q 2525 4150 2662 3875 
Q 2800 3600 2762 3212 
Q 2725 2825 2375 2287 
Q 2025 1750 1025 600 
L 2825 600 
L 2825 150 
L 300 150 
L 300 250 
z
" transform="scale(0.015625)"/>
       </defs>
       <use xlink:href="#SimHei-32"/>
       <use xlink:href="#SimHei-30" x="50"/>
       <use xlink:href="#SimHei-30" x="100"/>
       <use xlink:href="#SimHei-30" x="150"/>
      </g>
     </g>
    </g>
    <g id="xtick_6">
     <g id="line2d_6">
      <g>
       <use xlink:href="#maa7d17a7a8" x="322.939119" y="252" style="stroke: #000000; stroke-width: 0.8"/>
      </g>
     </g>
     <g id="text_6">
      <!-- 2500 -->
      <g transform="translate(312.939119 265.875)scale(0.1 -0.1)">
       <use xlink:href="#SimHei-32"/>
       <use xlink:href="#SimHei-35" x="50"/>
       <use xlink:href="#SimHei-30" x="100"/>
       <use xlink:href="#SimHei-30" x="150"/>
      </g>
     </g>
    </g>
    <g id="xtick_7">
     <g id="line2d_7">
      <g>
       <use xlink:href="#maa7d17a7a8" x="373.683307" y="252" style="stroke: #000000; stroke-width: 0.8"/>
      </g>
     </g>
     <g id="text_7">
      <!-- 3000 -->
      <g transform="translate(363.683307 265.875)scale(0.1 -0.1)">
       <defs>
        <path id="SimHei-33" d="M 250 1225 
L 700 1300 
Q 800 975 1025 762 
Q 1250 550 1587 562 
Q 1925 575 2125 837 
Q 2325 1100 2300 1437 
Q 2275 1775 2037 1962 
Q 1800 2150 1275 2225 
L 1275 2550 
Q 1800 2600 2037 2825 
Q 2275 3050 2250 3412 
Q 2225 3775 1925 3937 
Q 1625 4100 1287 3975 
Q 950 3850 750 3275 
L 300 3350 
Q 450 3800 712 4100 
Q 975 4400 1425 4450 
Q 1875 4500 2212 4337 
Q 2550 4175 2687 3837 
Q 2825 3500 2725 3100 
Q 2625 2700 2150 2400 
Q 2500 2250 2687 1950 
Q 2875 1650 2812 1162 
Q 2750 675 2375 375 
Q 2000 75 1525 87 
Q 1050 100 700 387 
Q 350 675 250 1225 
z
" transform="scale(0.015625)"/>
       </defs>
       <use xlink:href="#SimHei-33"/>
       <use xlink:href="#SimHei-30" x="50"/>
       <use xlink:href="#SimHei-30" x="100"/>
       <use xlink:href="#SimHei-30" x="150"/>
      </g>
     </g>
    </g>
   </g>
   <g id="matplotlib.axis_2">
    <g id="ytick_1">
     <g id="line2d_8">
      <defs>
       <path id="ma5bb63832c" d="M 0 0 
L -3.5 0 
" style="stroke: #000000; stroke-width: 0.8"/>
      </defs>
      <g>
       <use xlink:href="#ma5bb63832c" x="54" y="240.704226" style="stroke: #000000; stroke-width: 0.8"/>
      </g>
     </g>
     <g id="text_8">
      <!-- 0 -->
      <g transform="translate(42 244.141726)scale(0.1 -0.1)">
       <use xlink:href="#SimHei-30"/>
      </g>
     </g>
    </g>
    <g id="ytick_2">
     <g id="line2d_9">
      <g>
       <use xlink:href="#ma5bb63832c" x="54" y="212.456918" style="stroke: #000000; stroke-width: 0.8"/>
      </g>
     </g>
     <g id="text_9">
      <!-- 20 -->
      <g transform="translate(37 215.894418)scale(0.1 -0.1)">
       <use xlink:href="#SimHei-32"/>
       <use xlink:href="#SimHei-30" x="50"/>
      </g>
     </g>
    </g>
    <g id="ytick_3">
     <g id="line2d_10">
      <g>
       <use xlink:href="#ma5bb63832c" x="54" y="184.20961" style="stroke: #000000; stroke-width: 0.8"/>
      </g>
     </g>
     <g id="text_10">
      <!-- 40 -->
      <g transform="translate(37 187.64711)scale(0.1 -0.1)">
       <defs>
        <path id="SimHei-34" d="M 2000 1100 
L 75 1100 
L 75 1525 
L 2100 4450 
L 2475 4450 
L 2475 1525 
L 3075 1525 
L 3075 1100 
L 2475 1100 
L 2475 150 
L 2000 150 
L 2000 1100 
z
M 2000 1525 
L 2000 3500 
L 600 1525 
L 2000 1525 
z
" transform="scale(0.015625)"/>
       </defs>
       <use xlink:href="#SimHei-34"/>
       <use xlink:href="#SimHei-30" x="50"/>
      </g>
     </g>
    </g>
    <g id="ytick_4">
     <g id="line2d_11">
      <g>
       <use xlink:href="#ma5bb63832c" x="54" y="155.962303" style="stroke: #000000; stroke-width: 0.8"/>
      </g>
     </g>
     <g id="text_11">
      <!-- 60 -->
      <g transform="translate(37 159.399803)scale(0.1 -0.1)">
       <defs>
        <path id="SimHei-36" d="M 250 1612 
Q 275 1975 387 2225 
Q 500 2475 725 2850 
L 1750 4450 
L 2325 4450 
L 1275 2800 
Q 1950 2975 2350 2750 
Q 2750 2525 2887 2237 
Q 3025 1950 3037 1612 
Q 3050 1275 2937 950 
Q 2825 625 2537 362 
Q 2250 100 1737 75 
Q 1225 50 862 262 
Q 500 475 362 862 
Q 225 1250 250 1612 
z
M 1025 787 
Q 1250 550 1625 525 
Q 2000 500 2250 775 
Q 2500 1050 2500 1575 
Q 2500 2100 2187 2300 
Q 1875 2500 1487 2450 
Q 1100 2400 925 2075 
Q 750 1750 775 1387 
Q 800 1025 1025 787 
z
" transform="scale(0.015625)"/>
       </defs>
       <use xlink:href="#SimHei-36"/>
       <use xlink:href="#SimHei-30" x="50"/>
      </g>
     </g>
    </g>
    <g id="ytick_5">
     <g id="line2d_12">
      <g>
       <use xlink:href="#ma5bb63832c" x="54" y="127.714995" style="stroke: #000000; stroke-width: 0.8"/>
      </g>
     </g>
     <g id="text_12">
      <!-- 80 -->
      <g transform="translate(37 131.152495)scale(0.1 -0.1)">
       <defs>
        <path id="SimHei-38" d="M 175 1375 
Q 175 1675 325 1962 
Q 475 2250 825 2425 
Q 525 2600 425 2812 
Q 325 3025 312 3300 
Q 300 3575 387 3775 
Q 475 3975 650 4150 
Q 825 4325 1037 4387 
Q 1250 4450 1500 4450 
Q 1750 4450 1950 4400 
Q 2150 4350 2375 4187 
Q 2600 4025 2700 3725 
Q 2800 3425 2687 3025 
Q 2575 2625 2100 2400 
Q 2525 2275 2700 2012 
Q 2875 1750 2875 1375 
Q 2875 1000 2762 775 
Q 2650 550 2512 400 
Q 2375 250 2137 162 
Q 1900 75 1537 75 
Q 1175 75 912 162 
Q 650 250 475 425 
Q 300 600 237 837 
Q 175 1075 175 1375 
z
M 687 1400 
Q 675 1100 787 875 
Q 900 650 1200 587 
Q 1500 525 1825 600 
Q 2150 675 2275 950 
Q 2400 1225 2362 1500 
Q 2325 1775 2050 1962 
Q 1775 2150 1450 2125 
Q 1125 2100 912 1900 
Q 700 1700 687 1400 
z
M 775 3350 
Q 775 3100 950 2875 
Q 1125 2650 1500 2650 
Q 1875 2650 2062 2875 
Q 2250 3100 2237 3412 
Q 2225 3725 2012 3875 
Q 1800 4025 1437 4000 
Q 1075 3975 925 3787 
Q 775 3600 775 3350 
z
" transform="scale(0.015625)"/>
       </defs>
       <use xlink:href="#SimHei-38"/>
       <use xlink:href="#SimHei-30" x="50"/>
      </g>
     </g>
    </g>
    <g id="ytick_6">
     <g id="line2d_13">
      <g>
       <use xlink:href="#ma5bb63832c" x="54" y="99.467687" style="stroke: #000000; stroke-width: 0.8"/>
      </g>
     </g>
     <g id="text_13">
      <!-- 100 -->
      <g transform="translate(32 102.905187)scale(0.1 -0.1)">
       <use xlink:href="#SimHei-31"/>
       <use xlink:href="#SimHei-30" x="50"/>
       <use xlink:href="#SimHei-30" x="100"/>
      </g>
     </g>
    </g>
    <g id="ytick_7">
     <g id="line2d_14">
      <g>
       <use xlink:href="#ma5bb63832c" x="54" y="71.22038" style="stroke: #000000; stroke-width: 0.8"/>
      </g>
     </g>
     <g id="text_14">
      <!-- 120 -->
      <g transform="translate(32 74.65788)scale(0.1 -0.1)">
       <use xlink:href="#SimHei-31"/>
       <use xlink:href="#SimHei-32" x="50"/>
       <use xlink:href="#SimHei-30" x="100"/>
      </g>
     </g>
    </g>
    <g id="ytick_8">
     <g id="line2d_15">
      <g>
       <use xlink:href="#ma5bb63832c" x="54" y="42.973072" style="stroke: #000000; stroke-width: 0.8"/>
      </g>
     </g>
     <g id="text_15">
      <!-- 140 -->
      <g transform="translate(32 46.410572)scale(0.1 -0.1)">
       <use xlink:href="#SimHei-31"/>
       <use xlink:href="#SimHei-34" x="50"/>
       <use xlink:href="#SimHei-30" x="100"/>
      </g>
     </g>
    </g>
   </g>
   <g id="line2d_16">
    <path d="M 69.218182 240.315753 
L 69.31967 241.29696 
L 69.421159 239.842187 
L 69.522647 240.91068 
L 69.624135 240.013305 
L 69.827112 241.72641 
L 69.9286 239.347427 
L 70.030089 242.077888 
L 70.131577 240.843721 
L 70.233066 241.38889 
L 70.537531 239.653543 
L 70.639019 241.983649 
L 70.841996 240.197694 
L 70.943484 239.294839 
L 71.044973 240.207316 
L 71.146461 239.524264 
L 71.247949 240.990263 
L 71.450926 240.456662 
L 71.653903 241.713915 
L 71.755391 241.268446 
L 71.85688 241.891931 
L 71.958368 240.862951 
L 72.161345 242.080298 
L 72.364321 240.273238 
L 72.668787 241.731979 
L 72.770275 240.334016 
L 72.871763 240.751792 
L 72.973252 239.327778 
L 73.07474 241.645573 
L 73.176228 241.455492 
L 73.277717 240.809232 
L 73.379205 241.556963 
L 73.480694 239.744176 
L 73.68367 241.347859 
L 73.886647 241.46049 
L 73.988135 241.17202 
L 74.089624 241.669124 
L 74.191112 239.375295 
L 74.292601 241.857718 
L 74.495577 239.772083 
L 74.597066 240.971052 
L 74.698554 239.518746 
L 74.800042 240.598709 
L 74.901531 240.471327 
L 75.003019 239.897128 
L 75.104508 241.601489 
L 75.205996 239.462594 
L 75.307484 240.650822 
L 75.510461 239.883793 
L 75.611949 242.016843 
L 75.814926 239.49665 
L 75.916415 240.800786 
L 76.017903 239.720684 
L 76.119391 241.062439 
L 76.322368 239.738197 
L 76.423856 239.601665 
L 76.525345 241.6508 
L 76.626833 239.793226 
L 76.728322 241.094218 
L 76.82981 239.441284 
L 76.931298 239.71724 
L 77.134275 240.880945 
L 77.337252 240.508225 
L 77.43874 239.551134 
L 77.641717 241.570613 
L 77.743205 239.968365 
L 77.844694 240.861175 
L 77.946182 239.6475 
L 78.04767 240.628603 
L 78.149159 239.516756 
L 78.250647 240.016153 
L 78.453624 241.565729 
L 78.555112 239.922795 
L 78.656601 242.042092 
L 78.758089 240.602891 
L 78.859577 240.727023 
L 78.961066 240.391618 
L 79.164043 241.213294 
L 79.265531 239.637303 
L 79.367019 240.855452 
L 79.468508 239.312294 
L 79.569996 241.180112 
L 79.671484 239.541089 
L 79.97595 242.060892 
L 80.077438 241.793076 
L 80.280415 240.629464 
L 80.381903 241.96111 
L 80.58488 239.377891 
L 80.889345 241.193121 
L 81.092322 241.365552 
L 81.295298 240.199864 
L 81.396787 241.459628 
L 81.498275 241.046773 
L 81.599764 241.621969 
L 81.904229 240.322763 
L 82.005717 241.569773 
L 82.107205 239.644872 
L 82.208694 239.898815 
L 82.310182 240.675593 
L 82.411671 239.550724 
L 82.513159 241.976624 
L 82.614647 241.851075 
L 82.919112 240.336685 
L 83.020601 241.093557 
L 83.122089 239.490368 
L 83.325066 241.669171 
L 83.426554 241.594451 
L 83.528043 239.337431 
L 83.629531 242.009734 
L 83.731019 241.717747 
L 83.933996 239.555897 
L 84.035485 240.475366 
L 84.136973 239.669426 
L 84.33995 241.489389 
L 84.441438 239.693726 
L 84.542926 241.392706 
L 84.644415 240.9935 
L 84.745903 241.686981 
L 84.847392 241.607714 
L 84.94888 240.756444 
L 85.151857 241.198075 
L 85.456322 239.975422 
L 85.55781 241.360081 
L 85.760787 239.344117 
L 85.963764 242.072906 
L 86.065252 241.771854 
L 86.369717 239.401107 
L 86.572694 241.010189 
L 86.674182 239.849868 
L 86.877159 241.812693 
L 86.978647 240.135676 
L 87.080136 240.145231 
L 87.283113 240.70511 
L 87.384601 239.935134 
L 87.486089 241.937971 
L 87.587578 241.099576 
L 87.689066 241.956258 
L 87.790554 240.721256 
L 87.892043 240.739105 
L 87.993531 241.622083 
L 88.09502 239.789373 
L 88.399485 241.743274 
L 88.500973 241.443391 
L 88.602461 239.821838 
L 88.70395 241.554667 
L 88.906927 239.408371 
L 89.109903 241.957093 
L 89.31288 240.302092 
L 89.414368 239.608374 
L 89.515857 239.921451 
L 89.617345 239.663981 
L 89.718834 239.99174 
L 89.92181 239.741754 
L 90.023299 241.233447 
L 90.124787 241.168009 
L 90.226275 239.972243 
L 90.429252 240.923427 
L 90.632229 239.680681 
L 90.835206 241.996025 
L 91.139671 240.709301 
L 91.241159 239.56036 
L 91.342648 240.0638 
L 91.444136 239.722251 
L 91.545624 240.90632 
L 91.647113 239.465471 
L 91.748601 241.89274 
L 91.850089 241.571074 
L 91.951578 239.651876 
L 92.053066 242.09556 
L 92.256043 239.773466 
L 92.357531 241.558653 
L 92.45902 241.425215 
L 92.560508 240.69951 
L 92.661996 241.113495 
L 92.864973 239.63834 
L 92.966462 241.614093 
L 93.06795 240.16245 
L 93.169438 241.024006 
L 93.473903 239.45016 
L 93.67688 241.309802 
L 93.879857 239.930565 
L 93.981345 241.620706 
L 94.082834 240.435091 
L 94.28581 241.679792 
L 94.488787 240.057826 
L 94.691764 241.400811 
L 94.894741 241.051745 
L 94.996229 241.834829 
L 95.199206 240.457551 
L 95.300694 241.156941 
L 95.402183 239.32111 
L 95.605159 240.81665 
L 95.706648 241.152965 
L 95.808136 241.063962 
L 95.909624 241.732984 
L 96.112601 240.547509 
L 96.21409 241.923764 
L 96.315578 239.799109 
L 96.518555 241.876234 
L 96.721531 239.957351 
L 96.82302 241.749565 
L 97.025997 239.711597 
L 97.127485 241.274611 
L 97.228973 240.122854 
L 97.330462 241.250896 
L 97.43195 240.295512 
L 97.533438 240.327557 
L 97.634927 241.80723 
L 97.736415 240.005689 
L 98.142369 241.726593 
L 98.243857 241.722333 
L 98.446834 240.045658 
L 98.548322 239.989693 
L 98.649811 240.248515 
L 98.751299 241.738745 
L 99.157252 239.63374 
L 99.258741 242.038245 
L 99.360229 240.327071 
L 99.461718 241.653494 
L 99.563206 239.817069 
L 99.664694 241.747618 
L 99.766183 239.558375 
L 99.867671 240.016289 
L 99.969159 241.986302 
L 100.172136 240.229743 
L 100.273625 241.148118 
L 100.375113 240.949227 
L 100.476601 239.401691 
L 100.57809 239.729224 
L 100.679578 240.831227 
L 100.781066 240.456951 
L 100.882555 240.74521 
L 100.984043 240.280382 
L 101.085532 240.701402 
L 101.18702 240.380482 
L 101.288508 239.454759 
L 101.389997 241.315057 
L 101.491485 239.706491 
L 101.694462 241.48322 
L 101.79595 241.465457 
L 101.998927 240.353896 
L 102.100415 240.228066 
L 102.201904 241.09981 
L 102.303392 240.968976 
L 102.506369 240.340695 
L 102.607857 240.348043 
L 102.709346 239.374471 
L 102.810834 240.557865 
L 102.912322 239.861818 
L 103.013811 241.732809 
L 103.115299 239.486133 
L 103.216787 241.20947 
L 103.318276 241.186939 
L 103.521253 239.779731 
L 103.724229 240.910035 
L 103.927206 239.554859 
L 104.130183 241.906608 
L 104.33316 240.030623 
L 104.434648 239.619607 
L 104.536136 242.064308 
L 104.637625 240.050469 
L 104.840601 240.915697 
L 104.94209 239.819882 
L 105.145067 241.430389 
L 105.246555 241.731199 
L 105.348043 239.729945 
L 105.55102 241.615004 
L 105.652508 240.677937 
L 105.753997 241.395522 
L 105.956974 239.342353 
L 106.058462 241.93228 
L 106.261439 240.356239 
L 106.362927 240.935645 
L 106.464415 240.686365 
L 106.565904 239.909927 
L 106.667392 241.956243 
L 106.870369 240.949385 
L 107.073346 241.587243 
L 107.276322 239.754438 
L 107.377811 239.853623 
L 107.580788 241.143992 
L 107.682276 241.610221 
L 107.783764 240.694606 
L 107.885253 241.361272 
L 107.986741 241.33456 
L 108.189718 240.639837 
L 108.291206 239.470359 
L 108.392695 241.26577 
L 108.494183 241.098294 
L 108.595671 239.827906 
L 108.69716 241.034899 
L 108.798648 239.56866 
L 108.900136 239.637753 
L 109.001625 239.560354 
L 109.103113 242.036329 
L 109.30609 239.652973 
L 109.407578 241.4789 
L 109.509067 239.918865 
L 109.610555 240.911453 
L 109.712043 240.204396 
L 109.813532 241.752399 
L 110.117997 239.86982 
L 110.320974 241.845984 
L 110.625439 240.12901 
L 110.726927 241.741357 
L 110.828416 241.163425 
L 110.929904 239.842555 
L 111.031392 241.432038 
L 111.234369 240.29181 
L 111.335857 240.427556 
L 111.437346 242.040691 
L 111.538834 240.034612 
L 111.640323 242.005666 
L 111.741811 239.540173 
L 111.843299 241.368346 
L 111.944788 241.251169 
L 112.046276 241.881689 
L 112.249253 239.63362 
L 112.45223 240.523727 
L 112.553718 240.480174 
L 112.655206 239.337697 
L 112.756695 240.084384 
L 112.858183 239.727222 
L 112.959671 241.975145 
L 113.06116 241.108923 
L 113.162648 241.172169 
L 113.264137 241.299368 
L 113.365625 239.572462 
L 113.467113 240.68217 
L 113.568602 240.019187 
L 113.67009 240.402 
L 113.771578 241.452424 
L 113.974555 240.199829 
L 114.076044 242.030879 
L 114.177532 241.781435 
L 114.380509 239.857583 
L 114.481997 241.59399 
L 114.583485 239.704967 
L 114.684974 240.383145 
L 114.786462 239.424157 
L 114.989439 241.826262 
L 115.090927 239.579385 
L 115.192416 240.044674 
L 115.293904 241.838118 
L 115.395392 240.229002 
L 115.598369 241.461205 
L 115.699858 240.445127 
L 115.801346 240.921707 
L 116.004323 239.7703 
L 116.105811 239.799734 
L 116.207299 241.877749 
L 116.308788 240.515803 
L 116.410276 242.001623 
L 116.511765 240.218976 
L 116.613253 241.036602 
L 116.81623 239.555891 
L 116.917718 240.333606 
L 117.019206 239.455451 
L 117.120695 239.553803 
L 117.323672 242.041499 
L 117.42516 241.724955 
L 117.526648 239.580521 
L 117.729625 241.781361 
L 117.831113 241.334066 
L 118.03409 239.519623 
L 118.135579 239.346567 
L 118.237067 241.743756 
L 118.440044 240.591719 
L 118.64302 241.906595 
L 118.845997 239.380649 
L 119.150462 241.863208 
L 119.251951 240.144279 
L 119.454927 241.217521 
L 119.556416 241.010707 
L 119.657904 241.327516 
L 119.860881 239.849799 
L 119.962369 239.972682 
L 120.063858 241.407928 
L 120.165346 240.911227 
L 120.266834 239.326277 
L 120.368323 241.027403 
L 120.469811 239.402931 
L 120.5713 241.756189 
L 120.774276 240.48226 
L 120.875765 240.946826 
L 120.977253 239.784302 
L 121.078741 240.019999 
L 121.18023 240.707953 
L 121.281718 240.264515 
L 121.484695 241.812595 
L 121.586183 240.47698 
L 121.687672 241.014266 
L 121.78916 240.019161 
L 121.890648 241.737801 
L 121.992137 240.379794 
L 122.093625 241.223529 
L 122.296602 239.612742 
L 122.39809 239.547914 
L 122.499579 241.439733 
L 122.601067 240.032821 
L 122.804044 241.038206 
L 122.905532 239.491371 
L 123.007021 240.137631 
L 123.108509 239.850406 
L 123.209997 242.116364 
L 123.311486 240.561915 
L 123.412974 240.816686 
L 123.514462 240.286006 
L 123.717439 241.916584 
L 123.818928 239.333077 
L 123.920416 240.247641 
L 124.021904 239.590533 
L 124.123393 239.771166 
L 124.224881 241.368313 
L 124.427858 239.60336 
L 124.529346 240.420129 
L 124.630835 239.577444 
L 124.732323 241.791087 
L 124.833811 239.511193 
L 124.9353 240.72975 
L 125.036788 240.484232 
L 125.138276 241.234698 
L 125.239765 239.387039 
L 125.341253 241.184186 
L 125.442742 241.061553 
L 125.54423 242.097102 
L 125.747207 239.728193 
L 126.051672 241.664818 
L 126.254649 239.869731 
L 126.356137 240.657019 
L 126.457625 240.419879 
L 126.559114 240.67864 
L 126.660602 241.589177 
L 126.863579 239.35195 
L 127.066556 241.91473 
L 127.168044 241.667608 
L 127.269532 239.989025 
L 127.371021 241.641548 
L 127.472509 239.524427 
L 127.573997 241.378792 
L 127.675486 239.896972 
L 127.776974 242.070581 
L 127.878463 241.8491 
L 128.081439 240.376304 
L 128.182928 240.542781 
L 128.284416 240.293874 
L 128.385904 241.793323 
L 128.487393 239.796535 
L 128.588881 241.385337 
L 128.69037 240.061678 
L 128.791858 240.425036 
L 128.893346 239.366908 
L 128.994835 240.311618 
L 129.096323 239.915348 
L 129.2993 241.107986 
L 129.502277 239.633156 
L 129.705253 242.060893 
L 129.806742 240.083911 
L 129.90823 240.18986 
L 130.009718 239.310802 
L 130.212695 241.657994 
L 130.314184 239.748863 
L 130.51716 241.85503 
L 130.618649 239.34379 
L 130.720137 240.105385 
L 130.821625 241.799072 
L 130.923114 241.065221 
L 131.024602 241.45293 
L 131.227579 239.929229 
L 131.329067 241.659844 
L 131.430556 241.106072 
L 131.532044 241.688487 
L 131.735021 240.997558 
L 131.836509 239.783333 
L 131.937998 240.611215 
L 132.039486 240.123232 
L 132.140974 241.497776 
L 132.343951 240.954173 
L 132.445439 241.052797 
L 132.546928 239.370901 
L 132.648416 239.51011 
L 132.749905 239.746427 
L 132.851393 240.282202 
L 132.952881 240.065736 
L 133.05437 240.340922 
L 133.155858 239.962614 
L 133.358835 240.965553 
L 133.460323 239.882825 
L 133.561812 241.856333 
L 133.6633 241.648305 
L 133.866277 240.6375 
L 133.967765 241.920589 
L 134.069253 240.529366 
L 134.27223 240.723453 
L 134.373719 240.148657 
L 134.475207 241.901714 
L 134.576695 239.634382 
L 134.678184 240.025226 
L 134.779672 240.87876 
L 134.982649 239.354643 
L 135.084137 240.928004 
L 135.185626 240.614985 
L 135.287114 241.674953 
L 135.388602 239.473911 
L 135.591579 240.367524 
L 135.693067 239.610685 
L 135.896044 241.857096 
L 136.099021 239.32023 
L 136.200509 240.784292 
L 136.301998 240.709576 
L 136.403486 241.827425 
L 136.504974 239.418341 
L 136.606463 241.119149 
L 136.707951 239.715291 
L 136.80944 242.113452 
L 137.113905 241.359503 
L 137.215393 239.495228 
L 137.41837 241.549727 
L 137.519858 241.067395 
L 137.621347 240.815993 
L 137.722835 241.746485 
L 137.925812 240.081014 
L 138.230277 241.684023 
L 138.433254 240.675837 
L 138.534742 241.487278 
L 138.63623 239.424193 
L 138.737719 241.628179 
L 138.839207 240.512978 
L 138.940695 240.954859 
L 139.143672 240.412337 
L 139.245161 240.331749 
L 139.346649 241.01783 
L 139.448137 240.890361 
L 139.549626 239.704935 
L 139.651114 240.14987 
L 139.752602 241.757115 
L 139.854091 241.579622 
L 139.955579 241.936004 
L 140.260044 239.452683 
L 140.361533 240.901015 
L 140.463021 239.505449 
L 140.564509 240.746941 
L 140.665998 239.757458 
L 140.767486 240.013115 
L 140.868975 241.616958 
L 141.071951 239.642665 
L 141.17344 239.865399 
L 141.274928 241.394679 
L 141.477905 239.701165 
L 141.579393 240.595203 
L 141.680882 240.258177 
L 141.78237 240.301649 
L 141.985347 241.52771 
L 142.086835 240.307768 
L 142.188323 240.472628 
L 142.289812 239.418033 
L 142.3913 240.030868 
L 142.492789 241.511991 
L 142.594277 241.212843 
L 142.695765 241.577568 
L 142.898742 239.982652 
L 143.00023 240.347089 
L 143.101719 241.878638 
L 143.203207 240.573471 
L 143.304696 240.899762 
L 143.406184 239.374856 
L 143.609161 240.379263 
L 143.710649 239.544274 
L 144.015114 241.519597 
L 144.116603 240.011604 
L 144.319579 240.377276 
L 144.421068 239.697243 
L 144.522556 241.923459 
L 144.624044 239.697545 
L 144.827021 240.40051 
L 144.92851 241.321803 
L 145.131486 239.518768 
L 145.232975 239.481416 
L 145.334463 240.657924 
L 145.435951 239.689874 
L 145.53744 241.771886 
L 145.638928 241.019238 
L 145.740417 241.667259 
L 145.943393 239.934669 
L 146.044882 241.228329 
L 146.14637 241.076771 
L 146.247858 241.677585 
L 146.349347 239.371108 
L 146.552324 241.508435 
L 146.653812 240.365385 
L 146.7553 240.782643 
L 146.856789 242.085211 
L 147.059765 239.379387 
L 147.161254 239.970635 
L 147.262742 239.897217 
L 147.364231 241.764044 
L 147.567207 239.880206 
L 147.770184 241.765385 
L 147.871672 240.341976 
L 147.973161 241.032283 
L 148.074649 240.968004 
L 148.176138 239.323844 
L 148.379114 240.755396 
L 148.480603 239.812816 
L 148.683579 241.52285 
L 148.886556 240.152502 
L 148.988044 241.707026 
L 149.089533 240.297819 
L 149.191021 240.44987 
L 149.393998 239.496434 
L 149.596975 239.825772 
L 149.698463 240.139224 
L 149.799951 241.311528 
L 149.90144 239.632575 
L 150.002928 241.124752 
L 150.104417 239.338052 
L 150.205905 239.414675 
L 150.307393 239.466816 
L 150.51037 241.608117 
L 150.611858 239.472112 
L 150.814835 241.793056 
L 150.916324 240.567706 
L 151.017812 240.975061 
L 151.1193 239.759842 
L 151.220789 241.253432 
L 151.423765 240.828242 
L 151.525254 242.0793 
L 151.728231 239.412007 
L 151.931207 241.792056 
L 152.032696 241.173833 
L 152.134184 241.858031 
L 152.438649 239.939492 
L 152.540138 239.993536 
L 152.641626 241.675986 
L 152.844603 239.652353 
L 152.946091 240.595674 
L 153.047579 240.130749 
L 153.149068 241.899614 
L 153.352045 241.326393 
L 153.453533 241.505295 
L 153.555021 240.70912 
L 153.65651 240.818241 
L 153.757998 239.582404 
L 153.859486 241.770109 
L 154.062463 240.058338 
L 154.26544 241.886572 
L 154.366928 241.477141 
L 154.468417 240.236405 
L 154.569905 242.05519 
L 154.772882 240.008418 
L 154.87437 240.702405 
L 155.077347 239.719084 
L 155.280324 240.704226 
L 155.4833 235.711122 
L 155.686277 232.576513 
L 155.889254 228.525638 
L 156.295207 218.690382 
L 157.208603 196.64384 
L 157.310091 196.568668 
L 157.513068 187.442303 
L 157.614556 185.399857 
L 157.817533 175.686591 
L 158.223487 165.39175 
L 158.324975 164.763973 
L 158.832417 134.951535 
L 159.136882 122.017349 
L 159.745812 80.729149 
L 160.151766 66.491569 
L 160.253254 53.602814 
L 160.354742 56.2312 
L 160.456231 63.897043 
L 160.760696 98.760891 
L 161.065161 121.572813 
L 161.369626 156.90286 
L 161.471115 161.323008 
L 162.283022 240.934677 
L 162.38451 241.472373 
L 162.587487 240.276511 
L 162.688975 240.102174 
L 162.790463 241.615373 
L 162.891952 240.606227 
L 162.99344 241.139292 
L 163.094929 239.622903 
L 163.196417 240.288448 
L 163.297905 241.802253 
L 163.399394 240.211001 
L 163.500882 241.693343 
L 163.60237 241.547256 
L 163.703859 241.67833 
L 163.805347 240.752799 
L 163.906836 241.989634 
L 164.008324 239.615829 
L 164.211301 240.311034 
L 164.414277 242.110306 
L 164.515766 239.324479 
L 164.617254 240.756843 
L 164.718743 239.578878 
L 164.820231 240.006634 
L 164.921719 241.122902 
L 165.124696 240.363846 
L 165.226184 241.701007 
L 165.327673 240.139083 
L 165.53065 241.719987 
L 165.936603 239.75806 
L 166.038091 241.774893 
L 166.13958 241.675517 
L 166.342557 242.069267 
L 166.444045 239.531722 
L 166.647022 241.788933 
L 166.74851 240.232584 
L 166.951487 240.918021 
L 167.052975 239.452435 
L 167.35744 241.414461 
L 167.560417 239.398864 
L 167.763394 242.097496 
L 167.966371 239.414142 
L 168.067859 240.860422 
L 168.169347 240.465745 
L 168.270836 239.555635 
L 168.473812 242.051059 
L 168.575301 240.878014 
L 168.676789 242.066882 
L 168.879766 239.401052 
L 168.981254 241.945474 
L 169.082743 241.542864 
L 169.184231 239.317245 
L 169.387208 242.039039 
L 169.488696 241.160002 
L 169.590185 241.861441 
L 169.691673 239.315041 
L 169.996138 241.990623 
L 170.199115 239.888111 
L 170.300603 241.642938 
L 170.50358 240.483744 
L 170.605068 242.01018 
L 170.706557 240.005714 
L 170.808045 241.145756 
L 170.909533 240.775172 
L 171.011022 241.546063 
L 171.11251 240.07895 
L 171.213999 241.610075 
L 171.416975 240.690584 
L 171.518464 240.790242 
L 171.619952 241.738475 
L 171.72144 241.290328 
L 171.924417 240.145207 
L 172.025906 240.45634 
L 172.127394 241.482835 
L 172.330371 239.586282 
L 172.533347 241.708903 
L 172.736324 240.292317 
L 172.837813 241.143749 
L 173.040789 240.79038 
L 173.142278 239.896165 
L 173.345254 241.237429 
L 173.446743 241.475643 
L 173.548231 241.311084 
L 173.64972 239.79381 
L 173.751208 241.823301 
L 173.954185 239.65178 
L 174.055673 241.112836 
L 174.157161 240.570313 
L 174.25865 241.948216 
L 174.360138 240.393016 
L 174.563115 241.018163 
L 174.664603 241.927321 
L 174.86758 239.590649 
L 174.969068 241.279179 
L 175.172045 239.682836 
L 175.273534 240.837825 
L 175.375022 239.330584 
L 175.47651 241.342226 
L 175.577999 239.391471 
L 175.679487 241.813851 
L 175.780975 241.303096 
L 175.882464 239.470684 
L 175.983952 241.205497 
L 176.085441 239.49092 
L 176.186929 241.304122 
L 176.288417 239.578514 
L 176.491394 241.482626 
L 176.592882 240.162669 
L 176.694371 241.188017 
L 176.795859 240.818133 
L 176.897348 239.712966 
L 176.998836 240.240317 
L 177.100324 241.863808 
L 177.201813 241.413796 
L 177.303301 239.561402 
L 177.404789 241.030799 
L 177.607766 239.314864 
L 177.912231 241.128154 
L 178.01372 240.498511 
L 178.115208 241.963056 
L 178.216696 241.075588 
L 178.318185 241.221162 
L 178.521162 239.776565 
L 178.825627 241.611859 
L 178.927115 239.496462 
L 179.028603 239.560961 
L 179.333069 241.935992 
L 179.536045 239.310753 
L 179.739022 240.841553 
L 179.84051 240.984318 
L 180.043487 239.379346 
L 180.246464 241.588703 
L 180.347952 239.800897 
L 180.550929 240.974997 
L 180.652417 240.779229 
L 180.753906 242.026624 
L 180.855394 240.554107 
L 180.956883 241.973965 
L 181.159859 239.423411 
L 181.362836 241.609056 
L 181.464324 240.643676 
L 181.667301 241.273817 
L 181.870278 240.235307 
L 181.971766 240.550838 
L 182.073255 242.027408 
L 182.276231 241.490415 
L 182.37772 241.454502 
L 182.479208 241.269302 
L 182.580697 239.810175 
L 182.783673 241.228338 
L 182.885162 239.790392 
L 183.088138 241.896338 
L 183.189627 239.412634 
L 183.291115 241.550216 
L 183.494092 239.73361 
L 183.59558 239.804868 
L 183.697069 241.459947 
L 184.305999 239.574064 
L 184.407487 242.038402 
L 184.610464 239.81084 
L 184.813441 242.05023 
L 184.914929 239.807646 
L 185.016418 242.025215 
L 185.117906 241.744256 
L 185.422371 239.986308 
L 185.523859 240.682331 
L 185.625348 239.837432 
L 185.726836 240.328088 
L 185.828325 242.089582 
L 185.929813 239.47131 
L 186.234278 241.204643 
L 186.335766 241.367133 
L 186.437255 241.188108 
L 186.74172 239.780098 
L 187.249162 229.42539 
L 187.553627 221.925721 
L 187.655115 219.347545 
L 187.858092 211.483093 
L 188.061069 206.638665 
L 188.264046 202.72131 
L 188.365534 201.386005 
L 189.88786 133.978035 
L 190.090836 132.712482 
L 191.004232 100.537481 
L 191.10572 97.823777 
L 191.511674 78.368183 
L 191.613162 77.460002 
L 191.816139 97.91507 
L 191.917627 98.060723 
L 192.526557 190.767229 
L 192.628046 194.9946 
L 193.033999 236.133567 
L 193.135488 240.704226 
L 193.236976 240.044853 
L 193.439953 241.86817 
L 193.541441 241.254569 
L 193.642929 241.868702 
L 193.744418 239.698303 
L 193.845906 241.383062 
L 194.150371 239.647196 
L 194.25186 242.086462 
L 194.353348 239.980813 
L 194.657813 241.883736 
L 194.759302 239.301041 
L 194.962278 241.178023 
L 195.063767 240.797858 
L 195.165255 239.628581 
L 195.266743 241.592782 
L 195.368232 240.174146 
L 195.571209 241.257291 
L 195.672697 239.896435 
L 195.774185 241.625151 
L 195.875674 240.030847 
L 195.977162 241.054653 
L 196.07865 240.943664 
L 196.281627 239.564512 
L 196.383116 240.470297 
L 196.687581 239.338996 
L 196.789069 240.923529 
L 196.992046 239.647707 
L 197.093534 241.036566 
L 197.296511 240.685347 
L 197.397999 240.338783 
L 197.499488 241.115532 
L 197.600976 240.181097 
L 197.702464 240.396776 
L 197.803953 239.549513 
L 197.905441 242.034924 
L 198.00693 241.396351 
L 198.108418 241.919862 
L 198.209906 239.443504 
L 198.412883 242.090155 
L 198.514371 240.513397 
L 198.61586 240.644199 
L 198.717348 241.641647 
L 198.818837 240.154614 
L 198.920325 240.449994 
L 199.123302 239.906471 
L 199.22479 241.13001 
L 199.427767 240.453972 
L 199.630744 241.632048 
L 199.732232 241.577991 
L 199.83372 242.051762 
L 199.935209 240.471197 
L 200.036697 241.873705 
L 200.239674 240.018773 
L 200.341162 240.750293 
L 200.442651 240.71892 
L 200.544139 239.42825 
L 200.645627 239.827092 
L 200.747116 239.64679 
L 200.848604 240.748531 
L 201.051581 239.712677 
L 201.153069 239.463744 
L 201.254558 241.998419 
L 201.559023 239.575945 
L 201.660511 240.433747 
L 201.761999 239.816053 
L 201.964976 241.944038 
L 202.167953 239.446353 
L 202.269441 240.321184 
L 202.37093 239.458359 
L 202.472418 240.015567 
L 202.573906 239.897481 
L 202.675395 241.898354 
L 202.776883 241.463493 
L 202.97986 241.758873 
L 203.284325 239.598837 
L 203.385813 239.682357 
L 203.487302 241.424239 
L 203.58879 239.300078 
L 203.690279 241.081495 
L 203.791767 239.405603 
L 204.096232 240.933039 
L 204.19772 239.671497 
L 204.502186 241.917876 
L 204.603674 240.70598 
L 204.705162 240.723847 
L 204.806651 240.525261 
L 204.908139 239.37289 
L 205.009627 241.397724 
L 205.212604 240.617745 
L 205.314093 240.141079 
L 205.415581 241.609707 
L 205.618558 241.038832 
L 205.720046 241.579649 
L 205.923023 241.090802 
L 206.024511 241.016563 
L 206.126 241.816061 
L 206.328976 241.122406 
L 206.430465 239.960514 
L 206.531953 241.098665 
L 206.73493 240.184341 
L 207.039395 240.864915 
L 207.140883 241.861331 
L 207.34386 241.563163 
L 207.445348 241.472373 
L 207.648325 239.721312 
L 207.749814 241.996886 
L 207.851302 240.212072 
L 207.95279 241.964227 
L 208.054279 240.35181 
L 208.257255 241.885376 
L 208.358744 239.553493 
L 208.460232 240.26117 
L 208.663209 239.785823 
L 208.764697 239.651597 
L 208.866186 239.89786 
L 208.967674 240.612436 
L 209.069162 240.027572 
L 209.170651 240.485236 
L 209.272139 240.280606 
L 209.373628 240.508574 
L 209.475116 241.901623 
L 209.678093 239.660957 
L 209.779581 239.764096 
L 209.881069 241.022154 
L 209.982558 239.8877 
L 210.084046 240.396065 
L 210.185535 239.609313 
L 210.388511 241.656229 
L 210.49 241.592954 
L 210.591488 239.578418 
L 210.692976 241.376077 
L 210.794465 239.721545 
L 210.997442 241.949241 
L 211.09893 241.749185 
L 211.301907 239.529763 
L 211.403395 240.613572 
L 211.504883 240.441392 
L 211.70786 240.513814 
L 211.809349 241.09953 
L 212.012325 239.918719 
L 212.113814 240.7936 
L 212.215302 239.592272 
L 212.31679 241.517015 
L 212.519767 239.362176 
L 212.621256 240.525375 
L 212.722744 240.484046 
L 212.824232 239.36436 
L 212.925721 241.784277 
L 213.128697 240.153279 
L 213.230186 241.279138 
L 213.331674 239.710128 
L 213.433163 239.913063 
L 213.534651 241.96804 
L 213.636139 240.604412 
L 213.737628 241.162705 
L 213.839116 239.546397 
L 213.940604 242.090372 
L 214.042093 239.90264 
L 214.143581 241.834472 
L 214.24507 240.894356 
L 214.448046 241.239006 
L 214.549535 240.978647 
L 214.651023 240.128362 
L 214.752511 240.152151 
L 214.854 241.356724 
L 215.056977 239.697154 
L 215.158465 240.30737 
L 215.259953 241.171162 
L 215.361442 240.045199 
L 215.46293 241.519522 
L 215.564418 241.302023 
L 215.665907 239.941541 
L 215.767395 241.935588 
L 215.868884 241.454745 
L 215.970372 241.787091 
L 216.07186 241.138742 
L 216.173349 241.234712 
L 216.274837 239.8079 
L 216.477814 242.059516 
L 216.579302 240.404557 
L 216.680791 240.518557 
L 216.883767 239.730678 
L 217.086744 241.951761 
L 217.289721 239.626024 
L 217.695674 241.398332 
L 217.797163 240.455071 
L 217.898651 242.036987 
L 218.000139 241.525318 
L 218.101628 239.469648 
L 218.203116 241.052701 
L 218.304605 239.468008 
L 218.406093 241.853934 
L 218.507581 241.709924 
L 218.60907 241.423003 
L 218.710558 241.484486 
L 218.812046 240.053238 
L 218.913535 241.32923 
L 219.015023 239.95652 
L 219.116512 241.353091 
L 219.218 239.767191 
L 219.420977 241.911884 
L 219.522465 240.129899 
L 219.623953 240.987732 
L 219.82693 239.502274 
L 220.029907 241.059153 
L 220.131395 241.03726 
L 220.334372 239.293307 
L 220.43586 241.981102 
L 220.537349 239.725825 
L 220.638837 240.476353 
L 220.740326 239.521543 
L 220.841814 242.074069 
L 220.943302 241.892441 
L 221.044791 241.83334 
L 221.247767 239.458738 
L 221.349256 241.540637 
L 221.552233 239.701561 
L 221.653721 242.107107 
L 221.755209 242.097923 
L 222.059674 240.02677 
L 222.161163 239.987167 
L 222.262651 241.870532 
L 222.465628 239.493158 
L 222.567116 241.905113 
L 222.668605 240.11946 
L 222.770093 242.107072 
L 222.97307 241.644084 
L 223.074558 240.221508 
L 223.277535 241.834074 
L 223.480512 239.656484 
L 223.582 239.826873 
L 223.683488 241.496045 
L 223.886465 240.278214 
L 223.987954 241.758402 
L 224.089442 240.239722 
L 224.292419 241.730278 
L 224.393907 239.607699 
L 224.495395 242.012453 
L 224.596884 239.888033 
L 224.698372 240.802519 
L 224.799861 239.454864 
L 225.002837 240.49443 
L 225.104326 241.216205 
L 225.205814 240.039424 
L 225.307302 241.819869 
L 225.408791 241.369781 
L 225.510279 239.73666 
L 225.611768 241.95753 
L 225.916233 240.320806 
L 226.017721 240.69334 
L 226.119209 240.621137 
L 226.220698 240.909346 
L 226.322186 241.807793 
L 226.423675 239.708409 
L 226.525163 241.783512 
L 226.72814 240.79187 
L 226.829628 241.241315 
L 226.931116 239.486488 
L 227.134093 241.950695 
L 227.33707 239.329472 
L 227.438558 241.801788 
L 227.540047 241.262518 
L 227.641535 241.542878 
L 227.743023 241.329007 
L 227.844512 240.472917 
L 227.946 240.62839 
L 228.148977 241.302126 
L 228.250465 241.030602 
L 228.351954 239.809961 
L 228.453442 240.74632 
L 228.55493 240.695761 
L 228.757907 240.191935 
L 228.859396 240.938813 
L 229.062372 239.604358 
L 229.163861 239.387914 
L 229.265349 241.789481 
L 229.366837 240.785283 
L 229.468326 241.996972 
L 229.569814 240.578313 
L 229.671303 241.389494 
L 229.772791 240.085115 
L 229.975768 241.766862 
L 230.077256 241.565603 
L 230.178744 240.117816 
L 230.381721 241.638777 
L 230.48321 240.414714 
L 230.584698 240.633471 
L 230.686186 241.755847 
L 230.787675 239.736596 
L 230.889163 241.568735 
L 230.990651 240.588889 
L 231.09214 241.058717 
L 231.193628 240.504735 
L 231.295117 241.097559 
L 231.396605 239.831205 
L 231.498093 240.28787 
L 231.599582 241.96117 
L 231.70107 239.430208 
L 231.904047 241.657256 
L 232.005535 241.315245 
L 232.107024 241.286905 
L 232.208512 241.71579 
L 232.411489 240.655324 
L 232.512977 241.828285 
L 232.614465 241.766219 
L 232.715954 240.797502 
L 232.817442 241.036772 
L 233.020419 239.505003 
L 233.121907 241.312196 
L 233.223396 239.475446 
L 233.324884 240.302187 
L 233.426372 239.438183 
L 233.527861 241.545657 
L 233.730838 239.657272 
L 233.832326 240.929492 
L 234.035303 239.883661 
L 234.136791 240.749831 
L 234.339768 239.326871 
L 234.441256 240.166003 
L 234.542745 239.49859 
L 234.644233 240.114391 
L 234.745721 239.485281 
L 235.050186 240.358481 
L 235.151675 241.79114 
L 235.253163 239.67923 
L 235.45614 241.94563 
L 235.557628 239.767966 
L 235.659117 241.265292 
L 235.760605 240.086515 
L 235.862093 240.201423 
L 235.963582 239.340039 
L 236.166559 240.691178 
L 236.268047 241.607606 
L 236.369535 241.044704 
L 236.471024 239.492825 
L 236.674 241.648987 
L 236.775489 239.653471 
L 236.876977 241.31855 
L 237.079954 239.302414 
L 237.282931 239.529723 
L 237.384419 241.971669 
L 237.587396 239.47613 
L 237.688884 240.408885 
L 237.891861 239.562858 
L 237.993349 240.307226 
L 238.196326 239.391364 
L 238.297814 239.29209 
L 238.60228 241.823538 
L 238.703768 241.405581 
L 238.906745 239.348432 
L 239.109721 241.493084 
L 239.21121 239.661672 
L 239.312698 239.79989 
L 239.414187 242.115814 
L 239.515675 239.57742 
L 239.718652 240.249214 
L 239.82014 239.316629 
L 239.921628 239.971666 
L 240.023117 241.360785 
L 240.124605 239.467699 
L 240.327582 241.036544 
L 240.530559 239.36477 
L 240.632047 239.695387 
L 240.733535 241.436836 
L 240.936512 239.949192 
L 241.038001 239.335267 
L 241.139489 241.033935 
L 241.240977 239.460963 
L 241.342466 241.501416 
L 241.545442 239.298497 
L 241.646931 239.923463 
L 241.748419 239.678556 
L 241.951396 241.309019 
L 242.052884 240.930332 
L 242.154373 241.389138 
L 242.255861 239.86248 
L 242.357349 239.973483 
L 242.458838 240.219004 
L 242.560326 240.983676 
L 242.864791 239.33519 
L 243.067768 239.732554 
L 243.270745 239.633431 
L 243.372233 239.618829 
L 243.473722 240.070211 
L 243.676698 239.708353 
L 243.778187 241.413005 
L 243.879675 239.901142 
L 243.981163 241.242906 
L 244.18414 239.669392 
L 244.285629 239.8369 
L 244.387117 241.743475 
L 244.488605 240.565476 
L 244.590094 240.646041 
L 244.691582 241.677913 
L 244.79307 241.425057 
L 244.894559 239.377824 
L 244.996047 241.572974 
L 245.097536 241.130316 
L 245.300512 241.581918 
L 245.402001 240.689707 
L 245.503489 241.324216 
L 245.604977 240.647878 
L 245.807954 241.66373 
L 246.010931 240.333018 
L 246.112419 240.930706 
L 246.213908 240.269744 
L 246.315396 241.607813 
L 246.518373 239.699408 
L 246.619861 239.91164 
L 246.72135 239.429277 
L 246.822838 239.527072 
L 247.127303 241.767217 
L 247.33028 239.761451 
L 247.431768 241.371622 
L 247.533257 241.279235 
L 247.634745 239.374952 
L 247.736233 241.996331 
L 247.837722 240.268106 
L 248.040698 240.606867 
L 248.142187 242.024376 
L 248.345164 239.525036 
L 248.446652 239.765403 
L 248.649629 240.722698 
L 248.751117 240.575392 
L 248.852605 239.692386 
L 248.954094 240.665391 
L 249.055582 239.661839 
L 249.258559 242.010127 
L 249.461536 239.464947 
L 249.563024 240.957489 
L 249.664512 239.955871 
L 249.766001 241.649516 
L 249.867489 240.218865 
L 249.968978 240.386552 
L 250.070466 241.833948 
L 250.171954 241.613848 
L 250.273443 240.964257 
L 250.374931 242.104957 
L 250.476419 241.318176 
L 250.577908 241.876717 
L 250.780885 239.335951 
L 250.882373 241.441704 
L 251.08535 239.466167 
L 251.288326 241.855165 
L 251.389815 241.80546 
L 251.491303 242.029628 
L 251.592792 241.729326 
L 251.69428 242.081356 
L 251.795768 241.688159 
L 251.897257 240.498603 
L 251.998745 240.837506 
L 252.100233 239.411739 
L 252.201722 241.579467 
L 252.30321 239.82563 
L 252.404699 241.255095 
L 252.506187 239.34731 
L 252.607675 241.981203 
L 252.810652 240.083126 
L 252.91214 241.372782 
L 253.115117 239.72352 
L 253.318094 240.734243 
L 253.521071 240.704226 
L 253.825536 238.942577 
L 254.231489 228.918708 
L 254.332978 228.747891 
L 254.535954 226.572149 
L 254.637443 226.089295 
L 254.84042 220.891065 
L 255.043396 206.154911 
L 255.246373 201.051509 
L 256.261257 149.076462 
L 256.464234 140.785718 
L 256.768699 138.627301 
L 257.073164 123.983098 
L 257.276141 104.777653 
L 257.479117 100.879402 
L 257.682094 88.924651 
L 257.783582 88.5427 
L 257.986559 78.845971 
L 258.189536 55.27254 
L 258.494001 44.443636 
L 258.696978 73.497678 
L 259.001443 92.257799 
L 259.305908 128.837486 
L 259.711862 169.195016 
L 259.914838 194.941637 
L 260.016327 195.00089 
L 260.523769 220.553092 
L 260.625257 220.837353 
L 260.929722 230.552519 
L 261.03121 240.704226 
L 261.132699 239.876654 
L 261.234187 241.655211 
L 261.335676 241.332861 
L 261.538652 240.322557 
L 261.640141 240.646232 
L 261.741629 240.490752 
L 261.944606 239.402964 
L 262.046094 239.879913 
L 262.147583 241.577368 
L 262.249071 239.434177 
L 262.350559 239.662121 
L 262.452048 240.536912 
L 262.553536 239.510737 
L 262.756513 241.727559 
L 262.858001 240.158735 
L 262.95949 241.269461 
L 263.060978 239.535292 
L 263.162466 241.994722 
L 263.263955 241.877255 
L 263.365443 241.872677 
L 263.466931 241.182778 
L 263.56842 239.557763 
L 263.669908 241.783581 
L 263.771397 239.650537 
L 263.872885 241.899307 
L 263.974373 240.078573 
L 264.17735 241.518332 
L 264.278838 240.008241 
L 264.380327 241.011807 
L 264.481815 239.654305 
L 264.583304 241.419809 
L 264.887769 239.481177 
L 264.989257 241.111944 
L 265.090745 239.441838 
L 265.496699 242.07096 
L 265.598187 241.72368 
L 265.699676 241.977977 
L 265.902652 239.331329 
L 266.004141 241.991779 
L 266.105629 241.38784 
L 266.207118 241.468803 
L 266.410094 240.007004 
L 266.511583 241.77936 
L 266.613071 241.610802 
L 266.714559 239.490963 
L 266.917536 242.083742 
L 267.019025 239.850589 
L 267.120513 241.8985 
L 267.222001 240.469016 
L 267.32349 241.852536 
L 267.424978 239.992564 
L 267.526466 240.332122 
L 267.627955 240.195927 
L 267.93242 241.47081 
L 268.236885 239.602694 
L 268.338373 241.052015 
L 268.439862 239.555795 
L 268.642839 241.704989 
L 268.744327 240.312212 
L 268.845815 242.104064 
L 268.947304 239.359124 
L 269.15028 241.655835 
L 269.251769 240.048357 
L 269.353257 241.702805 
L 269.454746 241.084071 
L 269.556234 239.588887 
L 269.657722 241.701377 
L 269.759211 241.679186 
L 270.063676 239.469834 
L 270.165164 241.663829 
L 270.368141 239.88094 
L 270.469629 240.141342 
L 270.571118 241.798229 
L 270.672606 239.773655 
L 270.774094 240.752992 
L 270.875583 240.719683 
L 270.977071 239.868044 
L 271.281536 242.024411 
L 271.383025 239.781448 
L 271.484513 240.105196 
L 271.586001 241.334255 
L 271.68749 241.025895 
L 271.788978 241.864268 
L 271.991955 239.767439 
L 272.093443 239.940089 
L 272.194932 241.669019 
L 272.397908 239.460747 
L 272.600885 241.08027 
L 272.803862 239.906062 
L 272.90535 240.038846 
L 273.108327 239.548424 
L 273.209815 240.025257 
L 273.311304 241.323125 
L 273.412792 240.218511 
L 273.514281 241.845406 
L 273.615769 241.54295 
L 273.717257 240.533678 
L 273.818746 241.552071 
L 273.920234 240.683427 
L 274.021722 240.712838 
L 274.123211 241.640329 
L 274.224699 240.521144 
L 274.326188 241.243465 
L 274.427676 241.023092 
L 274.529164 239.746245 
L 274.630653 241.03914 
L 274.732141 240.596137 
L 274.833629 241.818696 
L 274.935118 239.645321 
L 275.036606 242.013378 
L 275.138095 239.767243 
L 275.239583 241.630289 
L 275.341071 239.568895 
L 275.44256 240.720673 
L 275.544048 239.392617 
L 275.747025 241.482933 
L 275.848513 239.9796 
L 275.950002 240.557902 
L 276.05149 242.056988 
L 276.152978 239.37714 
L 276.254467 241.117748 
L 276.457443 239.603756 
L 276.558932 240.063679 
L 276.66042 239.602932 
L 276.863397 240.511677 
L 276.964885 240.388288 
L 277.066374 239.82672 
L 277.167862 240.073972 
L 277.26935 241.504882 
L 277.370839 239.732598 
L 277.472327 241.730377 
L 277.675304 239.305653 
L 277.776792 241.017961 
L 277.878281 240.925922 
L 277.979769 240.093297 
L 278.182746 240.693108 
L 278.284234 239.333023 
L 278.487211 241.059599 
L 278.588699 240.829401 
L 278.690188 242.088694 
L 278.791676 239.413561 
L 278.994653 241.837049 
L 279.096141 241.646796 
L 279.299118 239.501166 
L 279.400606 241.564342 
L 279.603583 240.091648 
L 279.705071 240.399122 
L 279.80656 240.660391 
L 280.009537 241.675437 
L 280.111025 240.176935 
L 280.41549 241.716222 
L 280.516978 240.077475 
L 280.618467 240.117649 
L 280.719955 240.564203 
L 280.821444 241.832702 
L 280.922932 239.820984 
L 281.227397 241.240661 
L 281.328885 240.882061 
L 281.430374 241.695062 
L 281.531862 240.774584 
L 281.633351 241.780291 
L 281.734839 241.148634 
L 281.836327 239.801703 
L 282.039304 240.704226 
L 282.242281 239.253054 
L 282.343769 239.027312 
L 282.749723 229.189754 
L 282.851211 228.342218 
L 283.155676 218.306992 
L 283.358653 216.993404 
L 283.460141 216.522998 
L 283.764606 205.527153 
L 283.967583 203.208352 
L 284.576513 172.611279 
L 284.77949 171.673562 
L 284.982467 170.138601 
L 285.591397 145.698852 
L 285.895862 132.957188 
L 286.403304 97.002259 
L 286.606281 85.787354 
L 286.707769 83.917707 
L 286.809258 79.956515 
L 287.012234 65.397183 
L 287.215211 83.380944 
L 287.418188 88.722819 
L 287.722653 113.931661 
L 287.824141 117.72572 
L 288.027118 155.338595 
L 288.331583 179.822688 
L 288.636048 190.639598 
L 288.940514 223.395612 
L 289.042002 228.525112 
L 289.244979 241.201015 
L 289.346467 241.048313 
L 289.447955 241.498048 
L 289.549444 240.642764 
L 289.650932 241.854125 
L 289.752421 240.717305 
L 290.158374 241.860691 
L 290.361351 239.646551 
L 290.564328 241.017698 
L 290.665816 240.757444 
L 290.767304 240.081701 
L 290.868793 241.847286 
L 290.970281 240.138282 
L 291.071769 240.197192 
L 291.173258 241.61099 
L 291.376235 239.645865 
L 291.477723 240.261089 
L 291.579211 241.690864 
L 291.883676 239.863984 
L 292.086653 241.643698 
L 292.188142 240.320421 
L 292.391118 241.467524 
L 292.594095 240.387966 
L 292.695583 241.243072 
L 292.797072 240.815646 
L 293.000049 240.974996 
L 293.203025 242.112404 
L 293.406002 240.325811 
L 293.50749 241.160394 
L 293.710467 239.34315 
L 293.811956 241.409622 
L 293.913444 240.204113 
L 294.014932 241.709176 
L 294.116421 239.881939 
L 294.217909 241.57119 
L 294.319397 239.526947 
L 294.420886 241.663868 
L 294.623862 239.876491 
L 294.725351 239.651734 
L 294.826839 240.740446 
L 295.029816 239.871404 
L 295.232793 239.580058 
L 295.334281 242.027634 
L 295.435769 239.863248 
L 295.537258 241.348529 
L 295.638746 241.210124 
L 295.740235 240.9071 
L 295.841723 241.726164 
L 295.943211 240.092739 
L 296.0447 241.837626 
L 296.146188 240.742994 
L 296.247676 241.29212 
L 296.349165 240.055591 
L 296.450653 241.219356 
L 296.65363 239.504764 
L 296.755118 241.769489 
L 296.856607 241.101451 
L 297.059583 241.709708 
L 297.161072 239.664206 
L 297.26256 241.136795 
L 297.364049 240.168518 
L 297.465537 240.213257 
L 297.668514 241.488807 
L 297.770002 240.18032 
L 297.87149 242.049337 
L 298.175956 239.400261 
L 298.277444 240.523485 
L 298.378932 240.500875 
L 298.581909 241.533707 
L 298.784886 239.673058 
L 298.886374 239.73155 
L 299.292328 242.052451 
L 299.393816 239.297593 
L 299.596793 241.94618 
L 299.79977 240.533067 
L 299.901258 239.978164 
L 300.104235 240.681918 
L 300.205723 239.322935 
L 300.307211 241.87948 
L 300.4087 239.694875 
L 300.611677 241.269108 
L 300.814653 240.07978 
L 300.916142 240.193131 
L 301.119118 241.052348 
L 301.220607 239.947096 
L 301.322095 240.617335 
L 301.423584 240.570562 
L 301.525072 240.19608 
L 301.728049 241.772332 
L 301.829537 241.708524 
L 301.931025 239.932394 
L 302.032514 241.812812 
L 302.134002 240.371431 
L 302.235491 240.523081 
L 302.336979 239.817617 
L 302.438467 241.490183 
L 302.641444 240.199293 
L 302.742932 241.216722 
L 302.844421 240.946709 
L 302.945909 241.487331 
L 303.047398 239.773003 
L 303.148886 241.699702 
L 303.351863 240.204825 
L 303.453351 240.445646 
L 303.554839 241.746542 
L 303.656328 240.311074 
L 303.859305 241.097942 
L 303.960793 241.207292 
L 304.062281 242.030123 
L 304.16377 239.726933 
L 304.265258 239.837457 
L 304.366746 240.376027 
L 304.468235 241.863694 
L 304.569723 239.520924 
L 304.671212 240.223086 
L 304.7727 242.007141 
L 304.975677 239.787396 
L 305.280142 241.336168 
L 305.38163 240.23572 
L 305.584607 241.040778 
L 305.686095 242.102022 
L 305.889072 239.312155 
L 306.092049 241.932698 
L 306.193537 241.481506 
L 306.295026 239.906673 
L 306.498002 241.91464 
L 306.599491 240.091357 
L 306.802467 241.950726 
L 306.903956 239.534923 
L 307.005444 241.785984 
L 307.106933 241.614153 
L 307.208421 240.544491 
L 307.309909 241.901868 
L 307.512886 239.510541 
L 307.614374 240.505553 
L 307.715863 239.42239 
L 308.020328 241.659903 
L 308.223305 242.108505 
L 308.426281 241.280213 
L 308.52777 239.313959 
L 308.629258 241.017842 
L 308.730747 239.872329 
L 309.035212 241.013929 
L 309.1367 241.966035 
L 309.339677 239.559687 
L 309.542654 241.628895 
L 309.74563 239.826747 
L 309.847119 240.024443 
L 309.948607 240.122426 
L 310.050095 241.795627 
L 310.253072 240.389282 
L 310.456049 241.044393 
L 310.557537 240.674708 
L 310.659026 241.493361 
L 310.760514 239.727321 
L 310.862002 241.92934 
L 310.963491 239.532545 
L 311.166468 240.553069 
L 311.267956 240.519937 
L 311.369444 239.871265 
L 311.470933 240.65981 
L 311.673909 239.664103 
L 311.775398 240.193744 
L 311.876886 239.405261 
L 311.978375 241.27276 
L 312.079863 239.696564 
L 312.181351 242.009732 
L 312.28284 240.772358 
L 312.384328 241.905812 
L 312.688793 239.554414 
L 312.790282 239.643712 
L 312.89177 240.055462 
L 312.993258 241.064101 
L 313.196235 239.384084 
L 313.399212 241.091119 
L 313.5007 239.602336 
L 313.703677 241.785897 
L 313.805165 239.301478 
L 313.906654 241.016367 
L 314.008142 239.320997 
L 314.211119 240.337773 
L 314.414096 240.218331 
L 314.515584 241.897045 
L 314.617072 239.432166 
L 314.718561 239.83051 
L 314.820049 241.72176 
L 314.921537 241.311638 
L 315.023026 239.296513 
L 315.124514 241.904495 
L 315.327491 240.819327 
L 315.428979 241.022172 
L 315.530468 239.430142 
L 315.733444 241.637896 
L 315.834933 241.781564 
L 315.936421 239.480887 
L 316.03791 241.063815 
L 316.139398 239.481179 
L 316.240886 242.07851 
L 316.342375 240.696256 
L 316.443863 240.725194 
L 316.545351 241.119228 
L 316.64684 239.916755 
L 316.849817 240.802529 
L 316.951305 241.249112 
L 317.052793 239.976986 
L 317.25577 241.890123 
L 317.357258 240.373085 
L 317.458747 240.61761 
L 317.560235 241.468154 
L 317.661724 239.631762 
L 317.8647 241.673639 
L 318.067677 239.741926 
L 318.169165 241.787741 
L 318.372142 240.004554 
L 318.473631 241.069751 
L 318.575119 239.40332 
L 318.778096 240.86114 
L 318.981072 240.064174 
L 319.082561 240.184699 
L 319.184049 239.575012 
L 319.387026 241.434747 
L 319.488514 241.945881 
L 319.590003 240.595338 
L 319.792979 241.113707 
L 319.894468 240.618622 
L 319.995956 239.441097 
L 320.097445 241.037099 
L 320.198933 239.580718 
L 320.503398 241.782394 
L 320.604886 239.734578 
L 320.706375 240.644493 
L 320.807863 239.808386 
L 321.01084 242.089394 
L 321.112328 239.571682 
L 321.213817 239.874315 
L 321.315305 239.460247 
L 321.416793 241.055454 
L 321.518282 239.336353 
L 321.721259 240.871703 
L 321.822747 239.713709 
L 321.924235 240.930939 
L 322.025724 239.82954 
L 322.127212 241.432989 
L 322.2287 241.409455 
L 322.330189 241.812543 
L 322.533166 240.753808 
L 322.634654 241.980978 
L 322.837631 239.800254 
L 322.939119 239.939757 
L 323.040607 241.696799 
L 323.142096 239.699513 
L 323.243584 240.672843 
L 323.345073 240.119446 
L 323.446561 242.09433 
L 323.649538 239.362247 
L 323.751026 241.131 
L 323.954003 240.784086 
L 324.055491 239.461287 
L 324.258468 241.671566 
L 324.359956 241.520461 
L 324.461445 239.85004 
L 324.562933 242.014936 
L 324.664421 241.802347 
L 324.76591 239.989039 
L 324.968887 241.894797 
L 325.070375 239.385666 
L 325.273352 240.448601 
L 325.37484 240.98746 
L 325.476328 239.938324 
L 325.679305 240.187996 
L 325.780794 239.829206 
L 325.98377 241.934402 
L 326.085259 240.118016 
L 326.186747 240.765658 
L 326.288235 240.082146 
L 326.491212 241.43777 
L 326.694189 240.674262 
L 326.795677 240.471931 
L 326.897166 239.435217 
L 326.998654 241.679307 
L 327.100142 240.385177 
L 327.303119 241.411305 
L 327.506096 241.996108 
L 327.709073 240.858831 
L 327.810561 241.910334 
L 328.013538 239.651923 
L 328.115026 241.986855 
L 328.216515 240.074196 
L 328.318003 241.262915 
L 328.52098 239.714577 
L 328.723956 241.025269 
L 328.825445 241.163237 
L 329.028422 239.375341 
L 329.12991 241.55616 
L 329.231398 239.925757 
L 329.332887 241.587308 
L 329.637352 240.163225 
L 329.73884 240.623616 
L 329.941817 241.946551 
L 330.144794 239.950185 
L 330.246282 241.536999 
L 330.34777 241.354265 
L 330.449259 240.470045 
L 330.550747 241.264513 
L 330.753724 240.907172 
L 331.159677 242.053002 
L 331.261166 241.489633 
L 331.362654 240.006903 
L 331.464143 242.053921 
L 331.768608 239.867161 
L 331.870096 241.929256 
L 331.971584 239.656668 
L 332.073073 241.403143 
L 332.174561 239.883436 
L 332.27605 241.461784 
L 332.479026 239.633297 
L 332.682003 241.427236 
L 332.88498 239.334478 
L 332.986468 242.007977 
L 333.087957 239.419861 
L 333.189445 241.421947 
L 333.290933 240.836832 
L 333.392422 240.890318 
L 333.49391 240.645219 
L 333.595398 241.804685 
L 333.798375 239.677909 
L 333.899864 240.002316 
L 334.001352 241.681444 
L 334.10284 240.666803 
L 334.204329 240.707201 
L 334.305817 240.216424 
L 334.407305 242.095219 
L 334.508794 240.772441 
L 334.610282 240.806248 
L 334.711771 241.895847 
L 334.813259 239.662814 
L 334.914747 241.944961 
L 335.016236 239.308923 
L 335.117724 239.803252 
L 335.219212 239.380351 
L 335.320701 240.800857 
L 335.422189 239.996738 
L 335.625166 241.997773 
L 335.726654 241.222393 
L 335.828143 239.466418 
L 335.929631 240.15827 
L 336.031119 239.623343 
L 336.132608 241.05901 
L 336.437073 239.627972 
L 336.64005 239.944768 
L 336.741538 241.974759 
L 336.843026 240.111085 
L 336.944515 240.243775 
L 337.046003 240.083818 
L 337.147492 240.731778 
L 337.350468 239.42544 
L 337.553445 242.081987 
L 337.654933 239.734354 
L 337.756422 240.140909 
L 337.85791 239.823125 
L 337.959399 240.08516 
L 338.060887 240.012007 
L 338.263864 240.354901 
L 338.46684 241.985729 
L 338.568329 241.80432 
L 338.771306 239.559145 
L 338.872794 241.963756 
L 338.974282 241.381119 
L 339.075771 239.395166 
L 339.177259 239.452475 
L 339.278747 239.758392 
L 339.481724 242.107574 
L 339.583213 239.572012 
L 339.786189 240.688212 
L 339.887678 240.00276 
L 340.090654 241.694859 
L 340.192143 241.067469 
L 340.293631 241.385125 
L 340.496608 239.449233 
L 340.598096 241.452279 
L 340.699585 240.266068 
L 340.801073 241.788516 
L 340.902561 241.579345 
L 341.00405 239.686549 
L 341.105538 240.518132 
L 341.207027 240.293581 
L 341.308515 240.366606 
L 341.410003 239.657849 
L 341.511492 239.919939 
L 341.61298 239.595736 
L 341.714468 240.953918 
L 341.815957 240.532619 
L 341.917445 242.103045 
L 342.018934 241.95811 
L 342.22191 239.74794 
L 342.424887 239.516699 
L 342.729352 241.331846 
L 342.830841 241.257959 
L 343.033817 239.910111 
L 343.236794 240.704226 
L 343.338282 240.513859 
L 343.439771 239.716772 
L 343.642748 235.406178 
L 343.845724 234.612967 
L 344.657631 214.622866 
L 344.75912 214.111084 
L 345.063585 204.148696 
L 345.571027 180.501035 
L 345.875492 177.056844 
L 346.078469 175.778164 
L 346.687399 154.247629 
L 346.890376 146.385886 
L 347.093352 134.428083 
L 347.194841 133.352299 
L 347.803771 103.326127 
L 348.006748 99.89399 
L 348.108236 99.510725 
L 348.209724 92.74946 
L 348.311213 94.455352 
L 348.615678 132.410582 
L 349.021631 186.246948 
L 349.12312 188.783331 
L 349.529073 228.661817 
L 349.73205 240.704226 
L 349.935027 239.724889 
L 350.138004 241.518553 
L 350.239492 240.338881 
L 350.34098 242.021962 
L 350.442469 240.493887 
L 350.645445 241.823021 
L 350.746934 240.197015 
L 350.848422 241.988421 
L 350.949911 239.33593 
L 351.051399 240.2992 
L 351.152887 240.169262 
L 351.254376 241.689796 
L 351.457352 239.788323 
L 351.660329 239.95594 
L 351.761818 241.175512 
L 351.863306 239.966395 
L 351.964794 240.712619 
L 352.066283 240.655842 
L 352.167771 240.493374 
L 352.269259 241.300293 
L 352.472236 240.033894 
L 352.573725 240.65931 
L 352.675213 241.991048 
L 352.776701 241.897037 
L 352.979678 239.554847 
L 353.081166 239.978977 
L 353.284143 242.083685 
L 353.385632 241.026489 
L 353.48712 242.058861 
L 353.588608 241.790856 
L 353.893073 239.524166 
L 353.994562 241.843014 
L 354.09605 240.341479 
L 354.197539 240.42025 
L 354.299027 241.904041 
L 354.400515 239.795025 
L 354.502004 240.929478 
L 354.603492 239.672891 
L 354.70498 241.267276 
L 354.907957 240.897645 
L 355.009446 241.112485 
L 355.110934 241.906598 
L 355.212422 239.6052 
L 355.415399 241.852336 
L 355.516887 239.933145 
L 355.618376 241.143039 
L 355.821353 239.297658 
L 355.922841 239.663977 
L 356.024329 241.461173 
L 356.125818 241.076977 
L 356.227306 241.410055 
L 356.430283 239.390818 
L 356.63326 241.602452 
L 356.734748 239.724722 
L 356.836236 241.849018 
L 356.937725 239.957277 
L 357.039213 241.14425 
L 357.140701 240.62128 
L 357.24219 241.941482 
L 357.343678 239.583263 
L 357.648143 241.153015 
L 357.85112 240.048917 
L 357.952608 240.853059 
L 358.054097 240.493945 
L 358.155585 241.196739 
L 358.257074 240.603948 
L 358.358562 241.057052 
L 358.46005 240.537564 
L 358.561539 241.870231 
L 358.663027 239.419288 
L 358.866004 242.030954 
L 358.967492 240.318888 
L 359.068981 241.377929 
L 359.170469 240.083985 
L 359.271957 241.922395 
L 359.677911 239.476309 
L 359.779399 240.473311 
L 359.880888 239.771435 
L 359.982376 241.652992 
L 360.083864 240.380383 
L 360.185353 240.949274 
L 360.286841 239.34216 
L 360.489818 241.205801 
L 360.591306 241.397007 
L 360.692795 239.839248 
L 360.895771 241.580295 
L 360.99726 240.258365 
L 361.098748 241.384212 
L 361.200236 239.878328 
L 361.504702 241.594901 
L 361.707678 241.4585 
L 361.809167 242.063783 
L 362.012143 240.62743 
L 362.113632 239.821685 
L 362.21512 239.913099 
L 362.316609 241.567641 
L 362.519585 239.348343 
L 362.722562 242.083118 
L 362.925539 239.443314 
L 363.027027 240.753169 
L 363.230004 239.329204 
L 363.331492 240.554521 
L 363.432981 239.538721 
L 363.534469 241.402777 
L 363.737446 239.683209 
L 363.838934 241.817387 
L 363.940423 239.383894 
L 364.041911 239.756344 
L 364.143399 242.003628 
L 364.244888 239.875226 
L 364.346376 239.975487 
L 364.447864 240.042245 
L 364.549353 239.715972 
L 364.650841 241.665339 
L 364.75233 239.528413 
L 364.853818 240.937352 
L 364.955306 240.403358 
L 365.056795 241.33839 
L 365.259771 239.78915 
L 365.36126 240.018945 
L 365.564237 241.638721 
L 365.665725 239.725598 
L 365.767213 242.054243 
L 366.071678 239.964816 
L 366.173167 241.050171 
L 366.477632 239.457931 
L 366.57912 239.881443 
L 366.680609 241.926082 
L 366.782097 241.728733 
L 366.883585 242.104855 
L 366.985074 239.638495 
L 367.086562 239.796469 
L 367.289539 241.931282 
L 367.492516 239.540471 
L 367.594004 241.967299 
L 367.695492 241.947693 
L 367.796981 241.962082 
L 367.898469 240.028358 
L 368.101446 242.053266 
L 368.202934 239.517547 
L 368.405911 242.092072 
L 368.608888 240.434671 
L 368.913353 241.235994 
L 369.014841 241.685489 
L 369.11633 240.15339 
L 369.420795 241.550016 
L 369.522283 241.111013 
L 369.72526 239.809353 
L 369.826748 240.003917 
L 369.928237 239.696716 
L 370.131213 240.620098 
L 370.232702 240.580003 
L 370.33419 240.80681 
L 370.435679 240.003228 
L 370.841632 241.819791 
L 370.94312 239.734368 
L 371.044609 242.112004 
L 371.146097 239.749173 
L 371.247586 240.666989 
L 371.349074 239.775487 
L 371.450562 241.758549 
L 371.552051 240.967971 
L 371.958004 241.862852 
L 372.059493 239.538895 
L 372.160981 240.610654 
L 372.262469 239.374968 
L 372.566934 240.437487 
L 372.668423 241.548507 
L 372.769911 241.018478 
L 372.972888 241.715916 
L 373.175865 240.073084 
L 373.277353 242.100873 
L 373.378841 240.448042 
L 373.48033 240.705405 
L 373.581818 239.859771 
L 373.581818 239.859771 
" clip-path="url(#pae00cba21c)" style="fill: none; stroke: #1f77b4; stroke-width: 1.5; stroke-linecap: square"/>
   </g>
   <g id="patch_3">
    <path d="M 54 252 
L 54 34.56 
" style="fill: none; stroke: #000000; stroke-width: 0.8; stroke-linejoin: miter; stroke-linecap: square"/>
   </g>
   <g id="patch_4">
    <path d="M 388.8 252 
L 388.8 34.56 
" style="fill: none; stroke: #000000; stroke-width: 0.8; stroke-linejoin: miter; stroke-linecap: square"/>
   </g>
   <g id="patch_5">
    <path d="M 54 252 
L 388.8 252 
" style="fill: none; stroke: #000000; stroke-width: 0.8; stroke-linejoin: miter; stroke-linecap: square"/>
   </g>
   <g id="patch_6">
    <path d="M 54 34.56 
L 388.8 34.56 
" style="fill: none; stroke: #000000; stroke-width: 0.8; stroke-linejoin: miter; stroke-linecap: square"/>
   </g>
  </g>
 </g>
 <defs>
  <clipPath id="pae00cba21c">
   <rect x="54" y="34.56" width="334.8" height="217.44"/>
  </clipPath>
 </defs>
</svg>
