<svg width="2376" height="1525" xmlns="http://www.w3.org/2000/svg" xmlns:xlink="http://www.w3.org/1999/xlink" overflow="hidden"><defs><clipPath id="clip0"><rect x="1262" y="380" width="2376" height="1525"/></clipPath></defs><g clip-path="url(#clip0)" transform="translate(-1262 -380)"><path d="M1449.5 489C1449.5 443.437 1483.53 406.5 1525.5 406.5 1567.47 406.5 1601.5 443.437 1601.5 489 1601.5 534.564 1567.47 571.5 1525.5 571.5 1483.53 571.5 1449.5 534.564 1449.5 489Z" stroke="#2F528F" stroke-width="4.58333" stroke-miterlimit="8" fill="#4472C4" fill-rule="evenodd"/><path d="M1933.5 498C1933.5 452.437 1967.53 415.5 2009.5 415.5 2051.47 415.5 2085.5 452.437 2085.5 498 2085.5 543.564 2051.47 580.5 2009.5 580.5 1967.53 580.5 1933.5 543.564 1933.5 498Z" stroke="#2F528F" stroke-width="4.58333" stroke-miterlimit="8" fill="#4472C4" fill-rule="evenodd"/><path d="M2976.5 704C2976.5 658.437 3010.53 621.5 3052.5 621.5 3094.47 621.5 3128.5 658.437 3128.5 704 3128.5 749.563 3094.47 786.5 3052.5 786.5 3010.53 786.5 2976.5 749.563 2976.5 704Z" stroke="#2F528F" stroke-width="4.58333" stroke-miterlimit="8" fill="#4472C4" fill-rule="evenodd"/><path d="M2048.5 1004C2048.5 958.437 2082.53 921.5 2124.5 921.5 2166.47 921.5 2200.5 958.437 2200.5 1004 2200.5 1049.56 2166.47 1086.5 2124.5 1086.5 2082.53 1086.5 2048.5 1049.56 2048.5 1004Z" stroke="#2F528F" stroke-width="4.58333" stroke-miterlimit="8" fill="#4472C4" fill-rule="evenodd"/><path d="M2554.5 465C2554.5 419.437 2588.53 382.5 2630.5 382.5 2672.47 382.5 2706.5 419.437 2706.5 465 2706.5 510.564 2672.47 547.5 2630.5 547.5 2588.53 547.5 2554.5 510.564 2554.5 465Z" stroke="#2F528F" stroke-width="4.58333" stroke-miterlimit="8" fill="#4472C4" fill-rule="evenodd"/><path d="M1745.5 760C1745.5 714.437 1779.53 677.5 1821.5 677.5 1863.47 677.5 1897.5 714.437 1897.5 760 1897.5 805.564 1863.47 842.5 1821.5 842.5 1779.53 842.5 1745.5 805.564 1745.5 760Z" stroke="#2F528F" stroke-width="4.58333" stroke-miterlimit="8" fill="#4472C4" fill-rule="evenodd"/><path d="M2427.5 688C2427.5 642.436 2461.53 605.5 2503.5 605.5 2545.47 605.5 2579.5 642.436 2579.5 688 2579.5 733.563 2545.47 770.5 2503.5 770.5 2461.53 770.5 2427.5 733.563 2427.5 688Z" stroke="#2F528F" stroke-width="4.58333" stroke-miterlimit="8" fill="#4472C4" fill-rule="evenodd"/><path d="M1264.5 992C1264.5 946.437 1298.53 909.5 1340.5 909.5 1382.47 909.5 1416.5 946.437 1416.5 992 1416.5 1037.56 1382.47 1074.5 1340.5 1074.5 1298.53 1074.5 1264.5 1037.56 1264.5 992Z" stroke="#2F528F" stroke-width="4.58333" stroke-miterlimit="8" fill="#70AD47" fill-rule="evenodd"/><path d="M1747.5 1127C1747.5 1081.44 1781.53 1044.5 1823.5 1044.5 1865.47 1044.5 1899.5 1081.44 1899.5 1127 1899.5 1172.56 1865.47 1209.5 1823.5 1209.5 1781.53 1209.5 1747.5 1172.56 1747.5 1127Z" stroke="#2F528F" stroke-width="4.58333" stroke-miterlimit="8" fill="#70AD47" fill-rule="evenodd"/><path d="M1868.5 1623C1868.5 1577.44 1902.75 1540.5 1945 1540.5 1987.25 1540.5 2021.5 1577.44 2021.5 1623 2021.5 1668.56 1987.25 1705.5 1945 1705.5 1902.75 1705.5 1868.5 1668.56 1868.5 1623Z" stroke="#2F528F" stroke-width="4.58333" stroke-miterlimit="8" fill="#70AD47" fill-rule="evenodd"/><path d="M1640.5 1774C1640.5 1728.44 1674.53 1691.5 1716.5 1691.5 1758.47 1691.5 1792.5 1728.44 1792.5 1774 1792.5 1819.56 1758.47 1856.5 1716.5 1856.5 1674.53 1856.5 1640.5 1819.56 1640.5 1774Z" stroke="#2F528F" stroke-width="4.58333" stroke-miterlimit="8" fill="#70AD47" fill-rule="evenodd"/><path d="M1593.5 1359C1593.5 1313.44 1627.75 1276.5 1670 1276.5 1712.25 1276.5 1746.5 1313.44 1746.5 1359 1746.5 1404.56 1712.25 1441.5 1670 1441.5 1627.75 1441.5 1593.5 1404.56 1593.5 1359Z" stroke="#2F528F" stroke-width="4.58333" stroke-miterlimit="8" fill="#70AD47" fill-rule="evenodd"/><path d="M1422.5 1622C1422.5 1576.44 1456.53 1539.5 1498.5 1539.5 1540.47 1539.5 1574.5 1576.44 1574.5 1622 1574.5 1667.56 1540.47 1704.5 1498.5 1704.5 1456.53 1704.5 1422.5 1667.56 1422.5 1622Z" stroke="#2F528F" stroke-width="4.58333" stroke-miterlimit="8" fill="#70AD47" fill-rule="evenodd"/><path d="M2176.5 1448C2176.5 1402.44 2210.53 1365.5 2252.5 1365.5 2294.47 1365.5 2328.5 1402.44 2328.5 1448 2328.5 1493.56 2294.47 1530.5 2252.5 1530.5 2210.53 1530.5 2176.5 1493.56 2176.5 1448Z" stroke="#2F528F" stroke-width="4.58333" stroke-miterlimit="8" fill="#70AD47" fill-rule="evenodd"/><path d="M2507.5 1572C2507.5 1526.44 2541.53 1489.5 2583.5 1489.5 2625.47 1489.5 2659.5 1526.44 2659.5 1572 2659.5 1617.56 2625.47 1654.5 2583.5 1654.5 2541.53 1654.5 2507.5 1617.56 2507.5 1572Z" stroke="#2F528F" stroke-width="4.58333" stroke-miterlimit="8" fill="#70AD47" fill-rule="evenodd"/><path d="M3249.5 770C3249.5 724.437 3283.53 687.5 3325.5 687.5 3367.47 687.5 3401.5 724.437 3401.5 770 3401.5 815.563 3367.47 852.5 3325.5 852.5 3283.53 852.5 3249.5 815.563 3249.5 770Z" stroke="#2F528F" stroke-width="4.58333" stroke-miterlimit="8" fill="#FFC000" fill-rule="evenodd"/><path d="M2144.5 1809C2144.5 1763.44 2178.53 1726.5 2220.5 1726.5 2262.47 1726.5 2296.5 1763.44 2296.5 1809 2296.5 1854.56 2262.47 1891.5 2220.5 1891.5 2178.53 1891.5 2144.5 1854.56 2144.5 1809Z" stroke="#2F528F" stroke-width="4.58333" stroke-miterlimit="8" fill="#FFC000" fill-rule="evenodd"/><path d="M2118.5 723C2118.5 677.436 2152.53 640.5 2194.5 640.5 2236.47 640.5 2270.5 677.436 2270.5 723 2270.5 768.563 2236.47 805.5 2194.5 805.5 2152.53 805.5 2118.5 768.563 2118.5 723Z" stroke="#2F528F" stroke-width="4.58333" stroke-miterlimit="8" fill="#FFC000" fill-rule="evenodd"/><path d="M3133.5 1169C3133.5 1123.44 3167.53 1086.5 3209.5 1086.5 3251.47 1086.5 3285.5 1123.44 3285.5 1169 3285.5 1214.56 3251.47 1251.5 3209.5 1251.5 3167.53 1251.5 3133.5 1214.56 3133.5 1169Z" stroke="#2F528F" stroke-width="4.58333" stroke-miterlimit="8" fill="#FFC000" fill-rule="evenodd"/><path d="M3209.5 1559C3209.5 1513.44 3243.53 1476.5 3285.5 1476.5 3327.47 1476.5 3361.5 1513.44 3361.5 1559 3361.5 1604.56 3327.47 1641.5 3285.5 1641.5 3243.53 1641.5 3209.5 1604.56 3209.5 1559Z" stroke="#2F528F" stroke-width="4.58333" stroke-miterlimit="8" fill="#FFC000" fill-rule="evenodd"/><path d="M2704.5 1408C2704.5 1362.44 2738.53 1325.5 2780.5 1325.5 2822.47 1325.5 2856.5 1362.44 2856.5 1408 2856.5 1453.56 2822.47 1490.5 2780.5 1490.5 2738.53 1490.5 2704.5 1453.56 2704.5 1408Z" stroke="#2F528F" stroke-width="4.58333" stroke-miterlimit="8" fill="#FFC000" fill-rule="evenodd"/><path d="M2780.5 1170C2780.5 1124.44 2814.53 1087.5 2856.5 1087.5 2898.47 1087.5 2932.5 1124.44 2932.5 1170 2932.5 1215.56 2898.47 1252.5 2856.5 1252.5 2814.53 1252.5 2780.5 1215.56 2780.5 1170Z" stroke="#2F528F" stroke-width="4.58333" stroke-miterlimit="8" fill="#FFC000" fill-rule="evenodd"/><path d="M3133.5 478C3133.5 432.437 3167.53 395.5 3209.5 395.5 3251.47 395.5 3285.5 432.437 3285.5 478 3285.5 523.564 3251.47 560.5 3209.5 560.5 3167.53 560.5 3133.5 523.564 3133.5 478Z" stroke="#2F528F" stroke-width="4.58333" stroke-miterlimit="8" fill="#FFC000" fill-rule="evenodd"/><path d="M2345.5 1266C2345.5 1220.44 2379.75 1183.5 2422 1183.5 2464.25 1183.5 2498.5 1220.44 2498.5 1266 2498.5 1311.56 2464.25 1348.5 2422 1348.5 2379.75 1348.5 2345.5 1311.56 2345.5 1266Z" stroke="#FFC000" stroke-width="3.4375" stroke-linejoin="round" stroke-miterlimit="10" fill="none" fill-rule="evenodd"/><path d="M16.6547 15.7831 47.1332 47.7028 45.4758 49.2854 14.9973 17.3657ZM9.04658 29.3849 0 0 28.9359 10.3937ZM53.0839 35.6836 62.1305 65.0685 33.1946 54.6749Z" fill="#4472C4" transform="matrix(-1 0 0 1 2368.13 1324)"/><path d="M8.97097 21.1185 140.818 380.379 138.667 381.169 6.81961 21.908ZM-3.43367 30.5536 0 0 22.3827 21.0791ZM151.071 371.734 147.638 402.287 125.255 381.208Z" fill="#4472C4" transform="matrix(-1 0 0 1 2421.64 1348)"/><path d="M2348.37 1194.46 2194.51 1076.83 2195.9 1075.01 2349.77 1192.64ZM2353.78 1179.84 2367.28 1207.47 2337.08 1201.69ZM2190.5 1089.63 2177 1062 2207.2 1067.78Z" fill="#4472C4"/><path d="M2482.38 1345.73 2523.67 1490.64 2521.47 1491.27 2480.18 1346.35ZM2469.31 1354.22 2475 1324 2495.76 1346.68ZM2534.54 1482.78 2528.85 1512.99 2508.09 1490.31Z" fill="#4472C4"/><path d="M2519.92 1272.78 2705.57 1340.52 2704.79 1342.67 2519.14 1274.93ZM2519.12 1288.34 2498 1266 2528.55 1262.51ZM2705.59 1327.11 2726.71 1349.45 2696.16 1352.94Z" fill="#4472C4"/><path d="M22.8856 1.65671 282.175 33.5066 281.896 35.7812 22.6062 3.93129ZM25.6185 17.0002 0 0 28.9712-10.2947ZM279.162 20.4377 304.781 37.4379 275.81 47.7325Z" fill="#4472C4" transform="matrix(1 0 0 -1 2475 1207.44)"/><text fill="#353535" font-family="Consolas,Consolas_MSFontService,sans-serif" font-weight="400" font-size="83" transform="matrix(1 0 0 1 2326.08 985)">n_neighbors=6<tspan fill="#000000" font-family="DengXian,DengXian_MSFontService,sans-serif" font-size="83" x="79.0513" y="304">?</tspan><tspan font-family="DengXian,DengXian_MSFontService,sans-serif" font-size="83" x="24.4231" y="848">黄色类别是六个最近邻居中最多的</tspan></text></g></svg>